<?xml version="1.0" encoding="UTF-8" ?>
<!DOCTYPE svg PUBLIC "-//W3C//DTD SVG 1.1//EN" "http://www.w3.org/Graphics/SVG/1.1/DTD/svg11.dtd">
<svg width="500pt" height="519pt" viewBox="0 0 500 519" version="1.1" xmlns="http://www.w3.org/2000/svg">
<g id="#79787e80">
<path fill="#79787e" opacity="0.50" d=" M 215.08 0.00 L 234.49 0.00 C 228.44 0.15 222.40 0.40 216.37 0.13 L 215.08 0.00 Z" />
<path fill="#79787e" opacity="0.50" d=" M 250.50 0.00 L 276.88 0.00 L 275.69 0.13 C 267.31 0.92 258.88 0.34 250.50 0.00 Z" />
<path fill="#79787e" opacity="0.50" d=" M 203.73 1.82 C 207.25 1.42 210.75 0.99 214.27 0.50 C 210.79 1.18 207.24 1.46 203.73 1.82 Z" />
<path fill="#79787e" opacity="0.50" d=" M 276.73 0.26 C 281.88 0.96 287.03 1.46 292.20 2.00 C 287.03 1.61 281.87 0.93 276.73 0.26 Z" />
<path fill="#79787e" opacity="0.50" d=" M 183.80 3.84 C 185.33 2.66 187.33 2.45 189.12 3.16 C 187.59 4.35 185.58 4.55 183.80 3.84 Z" />
<path fill="#79787e" opacity="0.50" d=" M 307.65 3.17 C 309.33 3.32 312.70 3.61 314.38 3.76 C 312.70 3.61 309.33 3.32 307.65 3.17 Z" />
<path fill="#79787e" opacity="0.50" d=" M 177.87 4.82 C 179.05 3.67 180.75 3.45 182.24 4.13 C 181.05 5.27 179.35 5.50 177.87 4.82 Z" />
<path fill="#79787e" opacity="0.50" d=" M 314.95 4.10 C 316.71 3.44 318.66 3.70 320.15 4.86 C 318.39 5.57 316.38 5.41 314.95 4.10 Z" />
<path fill="#79787e" opacity="0.50" d=" M 163.84 6.94 C 164.99 5.76 166.69 5.50 168.18 6.16 C 167.01 7.32 165.33 7.58 163.84 6.94 Z" />
<path fill="#79787e" opacity="0.50" d=" M 330.07 6.07 C 331.43 5.70 333.46 5.49 334.10 7.14 C 332.66 7.87 331.13 7.03 330.07 6.07 Z" />
<path fill="#79787e" opacity="0.50" d=" M 335.11 6.82 C 336.50 6.35 337.36 6.83 337.71 8.26 C 336.37 8.54 335.51 8.06 335.11 6.82 Z" />
<path fill="#79787e" opacity="0.50" d=" M 152.91 9.07 C 153.75 7.91 154.85 7.59 156.19 8.13 C 155.34 9.27 154.25 9.58 152.91 9.07 Z" />
<path fill="#79787e" opacity="0.50" d=" M 342.09 7.91 C 343.47 7.62 345.48 7.54 346.06 9.18 C 344.59 9.88 343.10 8.93 342.09 7.91 Z" />
<path fill="#79787e" opacity="0.50" d=" M 347.10 8.88 C 348.45 8.42 349.34 8.86 349.78 10.21 C 348.44 10.62 347.55 10.18 347.10 8.88 Z" />
<path fill="#79787e" opacity="0.50" d=" M 352.04 9.69 C 353.33 9.34 354.30 9.79 354.96 11.04 C 353.49 11.46 352.52 11.00 352.04 9.69 Z" />
<path fill="#79787e" opacity="0.50" d=" M 139.87 11.99 C 140.73 10.84 141.83 10.53 143.17 11.07 C 142.30 12.21 141.20 12.52 139.87 11.99 Z" />
<path fill="#79787e" opacity="0.50" d=" M 355.79 10.96 C 357.13 10.49 358.23 10.83 359.07 11.98 C 357.69 12.49 356.60 12.15 355.79 10.96 Z" />
<path fill="#79787e" opacity="0.50" d=" M 131.92 14.06 C 132.76 12.89 133.85 12.57 135.20 13.09 C 134.35 14.24 133.26 14.56 131.92 14.06 Z" />
<path fill="#79787e" opacity="0.50" d=" M 366.79 14.15 C 368.13 13.62 369.22 13.94 370.06 15.11 C 368.72 15.61 367.63 15.29 366.79 14.15 Z" />
<path fill="#79787e" opacity="0.50" d=" M 379.76 18.03 C 381.89 17.50 384.05 18.16 385.43 19.88 C 383.34 20.12 381.31 19.46 379.76 18.03 Z" />
<path fill="#79787e" opacity="0.50" d=" M 388.75 20.94 C 390.60 20.48 392.54 21.12 393.61 22.74 C 391.78 22.96 389.97 22.33 388.75 20.94 Z" />
<path fill="#79787e" opacity="0.50" d=" M 396.57 24.01 C 398.42 23.82 400.19 24.65 401.21 26.21 C 399.34 26.44 397.56 25.61 396.57 24.01 Z" />
<path fill="#79787e" opacity="0.50" d=" M 405.70 27.92 C 407.57 27.64 409.39 28.48 410.31 30.16 C 408.47 30.26 406.74 29.44 405.70 27.92 Z" />
<path fill="#79787e" opacity="0.50" d=" M 414.93 31.89 C 416.41 32.22 417.00 33.07 416.69 34.46 C 415.42 34.12 414.83 33.26 414.93 31.89 Z" />
<path fill="#79787e" opacity="0.50" d=" M 78.34 36.34 C 78.07 35.06 78.61 34.27 79.94 33.95 C 80.32 35.35 79.78 36.15 78.34 36.34 Z" />
<path fill="#79787e" opacity="0.50" d=" M 218.46 36.86 C 235.03 35.70 251.72 35.23 268.28 36.67 C 251.90 37.06 235.51 36.98 219.12 36.86 L 218.46 36.86 Z" />
<path fill="#79787e" opacity="0.50" d=" M 73.22 39.40 C 72.92 37.92 73.55 37.10 75.12 36.94 C 75.07 38.22 74.43 39.04 73.22 39.40 Z" />
<path fill="#79787e" opacity="0.50" d=" M 207.59 38.03 C 207.49 35.72 211.65 35.47 212.31 37.51 C 211.13 37.64 208.77 37.90 207.59 38.03 Z" />
<path fill="#79787e" opacity="0.50" d=" M 277.70 37.04 C 280.54 37.21 283.38 37.40 286.21 37.67 C 283.38 37.45 280.51 37.25 277.70 37.04 Z" />
<path fill="#79787e" opacity="0.50" d=" M 423.59 37.06 C 425.46 37.29 427.63 37.79 428.37 39.78 C 426.26 40.23 424.62 38.69 423.59 37.06 Z" />
<path fill="#79787e" opacity="0.50" d=" M 195.45 39.09 C 195.29 36.93 199.01 36.84 199.57 38.71 C 198.20 38.94 196.83 39.09 195.45 39.09 Z" />
<path fill="#79787e" opacity="0.50" d=" M 294.70 38.58 C 295.38 36.55 299.53 36.83 299.45 39.13 C 298.27 39.00 295.89 38.72 294.70 38.58 Z" />
<path fill="#79787e" opacity="0.50" d=" M 188.33 40.02 C 188.14 38.14 191.35 37.87 191.82 39.57 C 190.69 39.94 189.51 40.13 188.33 40.02 Z" />
<path fill="#79787e" opacity="0.50" d=" M 303.67 39.59 C 304.35 37.56 308.49 37.80 308.46 40.10 C 307.26 39.97 304.87 39.72 303.67 39.59 Z" />
<path fill="#79787e" opacity="0.50" d=" M 180.29 41.03 C 180.08 39.14 183.30 38.86 183.77 40.55 C 182.65 40.93 181.47 41.12 180.29 41.03 Z" />
<path fill="#79787e" opacity="0.50" d=" M 312.37 40.62 C 312.97 38.81 316.64 38.93 316.51 41.06 C 315.12 41.07 313.73 40.92 312.37 40.62 Z" />
<path fill="#79787e" opacity="0.50" d=" M 429.01 39.75 C 430.33 39.69 431.12 40.37 431.38 41.80 C 429.88 41.79 429.09 41.11 429.01 39.75 Z" />
<path fill="#79787e" opacity="0.50" d=" M 174.11 42.07 C 174.68 40.37 175.61 40.17 176.92 41.46 C 176.06 42.03 175.12 42.23 174.11 42.07 Z" />
<path fill="#79787e" opacity="0.50" d=" M 320.04 41.50 C 321.30 40.17 322.24 40.34 322.85 42.02 C 321.84 42.22 320.91 42.04 320.04 41.50 Z" />
<path fill="#79787e" opacity="0.50" d=" M 169.20 43.01 C 169.76 41.32 170.70 41.12 172.00 42.41 C 171.14 42.99 170.21 43.19 169.20 43.01 Z" />
<path fill="#79787e" opacity="0.50" d=" M 326.03 42.44 C 327.34 41.18 328.27 41.40 328.80 43.10 C 327.78 43.26 326.86 43.04 326.03 42.44 Z" />
<path fill="#79787e" opacity="0.50" d=" M 431.93 42.20 C 434.06 43.67 436.17 45.19 438.18 46.83 C 436.10 45.28 434.00 43.76 431.93 42.20 Z" />
<path fill="#79787e" opacity="0.50" d=" M 63.87 44.98 C 64.13 43.65 64.94 42.91 66.30 42.76 C 66.15 44.25 65.34 44.99 63.87 44.98 Z" />
<path fill="#79787e" opacity="0.50" d=" M 163.24 44.20 C 163.69 42.47 164.60 42.21 165.98 43.42 C 165.16 44.05 164.25 44.31 163.24 44.20 Z" />
<path fill="#79787e" opacity="0.50" d=" M 337.14 44.57 C 338.42 43.26 339.36 43.45 339.96 45.15 C 338.94 45.31 338.00 45.12 337.14 44.57 Z" />
<path fill="#79787e" opacity="0.50" d=" M 60.50 46.99 C 60.87 45.60 61.76 44.95 63.19 45.04 C 62.82 46.39 61.92 47.05 60.50 46.99 Z" />
<path fill="#79787e" opacity="0.50" d=" M 340.91 45.35 C 342.31 44.17 343.23 44.45 343.66 46.18 C 342.63 46.27 341.72 45.99 340.91 45.35 Z" />
<path fill="#79787e" opacity="0.50" d=" M 150.29 47.36 C 150.74 45.61 151.66 45.35 153.03 46.60 C 152.21 47.19 151.30 47.45 150.29 47.36 Z" />
<path fill="#79787e" opacity="0.50" d=" M 438.75 47.29 C 445.74 52.94 452.40 59.12 458.06 66.14 C 451.00 60.52 444.78 53.96 438.75 47.29 Z" />
<path fill="#79787e" opacity="0.50" d=" M 55.49 50.84 C 55.91 49.46 56.84 48.83 58.27 48.94 C 57.83 50.30 56.90 50.93 55.49 50.84 Z" />
<path fill="#79787e" opacity="0.50" d=" M 108.90 62.02 C 110.95 60.91 113.07 59.94 115.23 59.06 C 113.11 60.01 110.98 60.96 108.90 62.02 Z" />
<path fill="#79787e" opacity="0.50" d=" M 43.44 62.66 C 43.81 61.37 44.70 60.81 46.11 60.97 C 45.67 62.41 44.78 62.97 43.44 62.66 Z" />
<path fill="#79787e" opacity="0.50" d=" M 106.09 64.16 C 105.95 62.40 106.71 61.86 108.37 62.55 C 107.86 63.46 107.11 64.00 106.09 64.16 Z" />
<path fill="#79787e" opacity="0.50" d=" M 39.07 69.06 C 39.01 67.30 40.62 66.04 42.30 66.14 C 42.04 67.74 40.71 68.98 39.07 69.06 Z" />
<path fill="#79787e" opacity="0.50" d=" M 96.84 68.95 C 96.79 67.13 97.58 66.63 99.23 67.47 C 98.62 68.27 97.82 68.76 96.84 68.95 Z" />
<path fill="#79787e" opacity="0.50" d=" M 402.70 67.47 C 404.36 66.67 405.14 67.18 405.04 69.01 C 404.06 68.80 403.28 68.28 402.70 67.47 Z" />
<path fill="#79787e" opacity="0.50" d=" M 459.28 67.76 C 460.53 69.51 461.65 71.36 462.75 73.22 C 461.61 71.39 460.48 69.55 459.28 67.76 Z" />
<path fill="#79787e" opacity="0.50" d=" M 93.88 70.90 C 93.70 69.09 94.46 68.54 96.15 69.23 C 95.62 70.09 94.86 70.65 93.88 70.90 Z" />
<path fill="#79787e" opacity="0.50" d=" M 35.97 73.03 C 35.99 71.35 37.30 69.99 38.96 69.85 C 39.01 71.55 37.64 72.93 35.97 73.03 Z" />
<path fill="#79787e" opacity="0.50" d=" M 91.01 72.96 C 90.75 71.16 91.48 70.57 93.20 71.21 C 92.70 72.08 91.97 72.66 91.01 72.96 Z" />
<path fill="#79787e" opacity="0.50" d=" M 410.75 72.58 C 412.09 70.97 415.06 73.21 413.82 74.92 C 412.68 74.30 411.66 73.48 410.75 72.58 Z" />
<path fill="#79787e" opacity="0.50" d=" M 33.73 76.01 C 33.71 74.67 34.41 73.91 35.83 73.72 C 35.81 75.20 35.11 75.96 33.73 76.01 Z" />
<path fill="#79787e" opacity="0.50" d=" M 87.15 76.12 C 86.92 74.35 87.65 73.77 89.35 74.38 C 88.88 75.29 88.14 75.87 87.15 76.12 Z" />
<path fill="#79787e" opacity="0.50" d=" M 463.06 73.73 C 464.48 74.48 466.08 75.53 466.08 77.34 C 464.08 77.43 463.25 75.39 463.06 73.73 Z" />
<path fill="#79787e" opacity="0.50" d=" M 415.63 76.18 C 419.93 79.30 424.27 82.75 426.79 87.54 C 422.94 83.89 419.31 80.00 415.63 76.18 Z" />
<path fill="#79787e" opacity="0.50" d=" M 31.25 81.29 C 31.07 79.41 31.94 77.49 33.73 76.72 C 34.00 78.62 33.06 80.56 31.25 81.29 Z" />
<path fill="#79787e" opacity="0.50" d=" M 74.09 88.42 C 76.67 83.68 80.89 79.97 85.44 77.16 C 81.76 81.01 77.84 84.63 74.09 88.42 Z" />
<path fill="#79787e" opacity="0.50" d=" M 466.52 80.15 C 467.91 80.06 468.69 80.78 468.85 82.29 C 467.44 82.17 466.66 81.46 466.52 80.15 Z" />
<path fill="#79787e" opacity="0.50" d=" M 28.95 84.18 C 29.12 82.74 29.88 82.02 31.22 82.04 C 31.18 83.40 30.42 84.11 28.95 84.18 Z" />
<path fill="#79787e" opacity="0.50" d=" M 469.46 82.51 C 471.13 82.79 471.26 84.76 471.15 86.10 C 470.04 85.32 468.74 83.98 469.46 82.51 Z" />
<path fill="#79787e" opacity="0.50" d=" M 25.09 91.09 C 24.59 89.08 26.05 87.16 28.06 86.92 C 27.67 88.65 26.77 90.32 25.09 91.09 Z" />
<path fill="#79787e" opacity="0.50" d=" M 428.08 89.24 C 429.80 87.99 432.05 90.98 430.45 92.35 C 429.57 91.38 428.74 90.36 428.08 89.24 Z" />
<path fill="#79787e" opacity="0.50" d=" M 471.91 88.77 C 474.41 89.19 475.20 91.76 475.28 93.97 C 473.64 92.62 472.22 90.93 471.91 88.77 Z" />
<path fill="#79787e" opacity="0.50" d=" M 70.45 93.18 C 68.91 91.79 71.21 88.90 72.87 90.16 C 72.25 91.30 71.39 92.28 70.45 93.18 Z" />
<path fill="#79787e" opacity="0.50" d=" M 23.00 96.22 C 22.97 94.55 23.31 92.48 25.15 91.88 C 25.61 93.69 24.39 95.23 23.00 96.22 Z" />
<path fill="#79787e" opacity="0.50" d=" M 430.81 93.09 C 432.60 92.94 433.16 93.70 432.50 95.38 C 431.61 94.86 431.05 94.09 430.81 93.09 Z" />
<path fill="#79787e" opacity="0.50" d=" M 67.19 97.19 C 66.62 95.44 67.23 94.73 69.03 95.06 C 68.69 96.01 68.08 96.71 67.19 97.19 Z" />
<path fill="#79787e" opacity="0.50" d=" M 475.52 94.53 C 476.69 97.07 477.76 99.65 478.78 102.26 C 477.67 99.69 476.59 97.11 475.52 94.53 Z" />
<path fill="#79787e" opacity="0.50" d=" M 432.85 96.16 C 434.64 96.04 435.19 96.81 434.49 98.49 C 433.62 97.93 433.07 97.16 432.85 96.16 Z" />
<path fill="#79787e" opacity="0.50" d=" M 65.24 100.16 C 64.53 98.47 65.08 97.71 66.89 97.87 C 66.65 98.86 66.10 99.62 65.24 100.16 Z" />
<path fill="#79787e" opacity="0.50" d=" M 434.96 99.21 C 437.05 98.14 438.94 101.73 437.21 103.10 C 436.38 101.85 435.64 100.54 434.96 99.21 Z" />
<path fill="#79787e" opacity="0.50" d=" M 243.67 101.00 C 246.31 100.92 251.59 100.74 254.22 100.65 C 250.91 100.66 247.63 100.68 244.34 100.95 L 243.67 101.00 Z" />
<path fill="#79787e" opacity="0.50" d=" M 63.48 103.23 C 62.64 101.59 63.13 100.79 64.95 100.83 C 64.77 101.82 64.28 102.62 63.48 103.23 Z" />
<path fill="#79787e" opacity="0.50" d=" M 261.30 101.55 C 261.82 99.86 265.05 100.26 264.78 102.15 C 263.58 102.18 262.42 101.94 261.30 101.55 Z" />
<path fill="#79787e" opacity="0.50" d=" M 267.13 102.52 C 267.63 100.84 270.82 101.13 270.65 103.01 C 269.45 103.09 268.26 102.90 267.13 102.52 Z" />
<path fill="#79787e" opacity="0.50" d=" M 17.93 107.30 C 17.62 105.43 18.45 103.61 20.11 102.67 C 20.25 104.50 19.43 106.24 17.93 107.30 Z" />
<path fill="#79787e" opacity="0.50" d=" M 239.94 108.50 C 237.89 107.98 238.12 103.30 240.31 103.10 C 240.34 104.90 240.22 106.71 239.94 108.50 Z" />
<path fill="#79787e" opacity="0.50" d=" M 274.00 103.42 C 275.40 102.24 276.30 102.53 276.71 104.29 C 275.69 104.36 274.78 104.06 274.00 103.42 Z" />
<path fill="#79787e" opacity="0.50" d=" M 59.75 110.14 C 58.03 108.84 59.76 105.19 61.85 106.21 C 61.28 107.59 60.59 108.91 59.75 110.14 Z" />
<path fill="#79787e" opacity="0.50" d=" M 480.13 105.54 C 481.67 106.62 482.40 108.47 482.03 110.32 C 480.55 109.18 479.83 107.38 480.13 105.54 Z" />
<path fill="#79787e" opacity="0.50" d=" M 239.68 110.26 C 240.70 109.95 241.51 110.28 242.13 111.27 C 240.76 112.25 239.94 111.91 239.68 110.26 Z" />
<path fill="#79787e" opacity="0.50" d=" M 297.05 110.62 C 298.00 108.81 301.50 110.10 300.66 112.11 C 299.40 111.76 298.19 111.25 297.05 110.62 Z" />
<path fill="#79787e" opacity="0.50" d=" M 252.80 113.54 C 255.66 113.68 258.49 113.80 261.37 113.91 C 258.51 113.83 255.65 113.69 252.80 113.54 Z" />
<path fill="#79787e" opacity="0.50" d=" M 264.18 113.86 C 265.18 113.64 266.11 113.81 266.98 114.37 C 265.71 115.70 264.78 115.53 264.18 113.86 Z" />
<path fill="#79787e" opacity="0.50" d=" M 167.92 116.40 C 169.60 115.67 170.37 116.22 170.23 118.04 C 169.25 117.78 168.48 117.24 167.92 116.40 Z" />
<path fill="#79787e" opacity="0.50" d=" M 483.85 115.97 C 485.14 117.42 486.02 119.19 486.12 121.16 C 483.81 120.51 483.49 117.98 483.85 115.97 Z" />
<path fill="#79787e" opacity="0.50" d=" M 54.65 121.06 C 52.91 120.07 54.26 116.64 56.21 117.44 C 55.89 118.72 55.35 119.94 54.65 121.06 Z" />
<path fill="#79787e" opacity="0.50" d=" M 311.75 117.43 C 313.43 116.66 314.20 117.19 314.07 119.02 C 313.09 118.78 312.32 118.24 311.75 117.43 Z" />
<path fill="#79787e" opacity="0.50" d=" M 170.96 118.47 C 172.94 116.98 175.94 120.15 174.29 122.03 C 173.15 120.87 172.06 119.67 170.96 118.47 Z" />
<path fill="#79787e" opacity="0.50" d=" M 314.58 119.47 C 316.24 118.79 317.00 119.34 316.85 121.12 C 315.85 120.91 315.09 120.37 314.58 119.47 Z" />
<path fill="#79787e" opacity="0.50" d=" M 142.11 123.99 C 140.86 122.28 143.81 119.98 145.20 121.59 C 144.25 122.48 143.22 123.30 142.11 123.99 Z" />
<path fill="#79787e" opacity="0.50" d=" M 174.83 122.62 C 176.60 124.41 178.33 126.26 179.90 128.24 C 178.20 126.38 176.49 124.52 174.83 122.62 Z" />
<path fill="#79787e" opacity="0.50" d=" M 139.10 126.02 C 139.00 124.18 139.79 123.67 141.46 124.47 C 140.86 125.27 140.07 125.78 139.10 126.02 Z" />
<path fill="#79787e" opacity="0.50" d=" M 298.45 124.04 C 300.08 124.50 301.60 125.30 303.00 126.27 C 301.53 127.85 297.68 126.28 298.45 124.04 Z" />
<path fill="#79787e" opacity="0.50" d=" M 323.81 125.46 C 325.18 123.88 328.11 126.17 326.83 127.84 C 325.69 127.21 324.69 126.39 323.81 125.46 Z" />
<path fill="#79787e" opacity="0.50" d=" M 487.08 125.84 C 487.68 128.29 488.30 130.72 488.91 133.17 C 488.24 130.74 487.62 128.30 487.08 125.84 Z" />
<path fill="#79787e" opacity="0.50" d=" M 306.00 127.97 C 306.95 128.27 307.66 128.87 308.13 129.78 C 306.39 130.35 305.68 129.75 306.00 127.97 Z" />
<path fill="#79787e" opacity="0.50" d=" M 327.38 128.21 C 329.87 129.06 331.77 130.86 333.27 132.97 C 331.34 131.34 329.40 129.72 327.38 128.21 Z" />
<path fill="#79787e" opacity="0.50" d=" M 10.13 132.21 C 9.58 130.88 9.88 129.78 11.02 128.91 C 11.56 130.24 11.26 131.34 10.13 132.21 Z" />
<path fill="#79787e" opacity="0.50" d=" M 127.04 137.35 C 128.88 133.81 131.68 130.79 135.21 128.90 C 132.53 131.76 129.79 134.56 127.04 137.35 Z" />
<path fill="#79787e" opacity="0.50" d=" M 182.15 131.17 C 183.96 129.93 186.04 133.08 184.37 134.39 C 183.56 133.36 182.81 132.29 182.15 131.17 Z" />
<path fill="#79787e" opacity="0.50" d=" M 311.12 131.06 C 312.14 131.13 312.98 131.57 313.62 132.39 C 312.04 133.27 311.20 132.83 311.12 131.06 Z" />
<path fill="#79787e" opacity="0.50" d=" M 251.13 136.03 C 250.04 134.62 252.18 132.15 253.70 133.18 C 253.36 134.50 252.40 135.55 251.13 136.03 Z" />
<path fill="#79787e" opacity="0.50" d=" M 263.26 133.57 C 263.73 131.86 266.98 132.15 266.75 134.06 C 265.56 134.11 264.39 133.91 263.26 133.57 Z" />
<path fill="#79787e" opacity="0.50" d=" M 314.28 132.91 C 315.38 133.64 316.42 134.47 317.42 135.36 C 315.99 136.93 313.05 134.64 314.28 132.91 Z" />
<path fill="#79787e" opacity="0.50" d=" M 268.95 134.41 C 270.29 133.16 271.21 133.40 271.71 135.13 C 270.69 135.24 269.77 135.00 268.95 134.41 Z" />
<path fill="#79787e" opacity="0.50" d=" M 184.87 135.14 C 186.59 134.03 188.78 136.93 187.29 138.32 C 186.32 137.38 185.50 136.32 184.87 135.14 Z" />
<path fill="#79787e" opacity="0.50" d=" M 318.13 135.89 C 319.24 136.61 320.25 137.49 321.10 138.51 C 319.61 139.95 316.90 137.53 318.13 135.89 Z" />
<path fill="#79787e" opacity="0.50" d=" M 8.06 140.18 C 7.60 138.80 7.97 137.73 9.18 136.95 C 9.62 138.31 9.24 139.39 8.06 140.18 Z" />
<path fill="#79787e" opacity="0.50" d=" M 251.20 140.59 C 249.25 141.00 249.34 137.00 251.27 137.48 C 251.42 138.52 251.40 139.55 251.20 140.59 Z" />
<path fill="#79787e" opacity="0.50" d=" M 451.64 138.30 C 453.40 138.71 453.68 139.62 452.48 141.02 C 451.85 140.22 451.57 139.31 451.64 138.30 Z" />
<path fill="#79787e" opacity="0.50" d=" M 490.14 137.84 C 490.82 140.30 491.41 142.78 491.98 145.27 C 491.36 142.80 490.75 140.32 490.14 137.84 Z" />
<path fill="#79787e" opacity="0.50" d=" M 124.47 141.44 C 123.76 139.78 124.30 139.01 126.09 139.15 C 125.89 140.15 125.35 140.91 124.47 141.44 Z" />
<path fill="#79787e" opacity="0.50" d=" M 188.96 140.32 C 190.60 138.97 193.04 141.81 191.52 143.28 C 190.58 142.36 189.70 141.39 188.96 140.32 Z" />
<path fill="#79787e" opacity="0.50" d=" M 122.58 144.41 C 121.85 142.75 122.38 141.98 124.18 142.10 C 123.97 143.10 123.44 143.87 122.58 144.41 Z" />
<path fill="#79787e" opacity="0.50" d=" M 250.97 142.20 C 252.39 142.71 253.68 143.49 254.99 144.24 C 253.67 145.99 250.06 144.34 250.97 142.20 Z" />
<path fill="#79787e" opacity="0.50" d=" M 324.73 142.01 C 328.41 145.10 331.76 148.56 334.99 152.11 C 331.16 149.20 327.17 146.25 324.73 142.01 Z" />
<path fill="#79787e" opacity="0.50" d=" M 191.95 143.92 C 193.77 143.73 194.33 144.48 193.65 146.19 C 192.80 145.64 192.23 144.89 191.95 143.92 Z" />
<path fill="#79787e" opacity="0.50" d=" M 344.17 144.42 C 346.24 143.15 348.93 146.47 347.34 148.30 C 346.24 147.04 345.14 145.77 344.17 144.42 Z" />
<path fill="#79787e" opacity="0.50" d=" M 257.46 144.87 C 258.67 145.04 261.08 145.38 262.29 145.55 C 261.51 147.56 257.42 147.15 257.46 144.87 Z" />
<path fill="#79787e" opacity="0.50" d=" M 45.33 149.09 C 44.15 147.68 44.43 146.77 46.16 146.34 C 46.25 147.36 45.97 148.28 45.33 149.09 Z" />
<path fill="#79787e" opacity="0.50" d=" M 266.17 145.81 C 267.18 145.65 268.10 145.87 268.94 146.48 C 267.61 147.73 266.68 147.51 266.17 145.81 Z" />
<path fill="#79787e" opacity="0.50" d=" M 302.79 146.38 C 304.49 145.65 305.24 146.20 305.06 148.02 C 304.09 147.76 303.34 147.21 302.79 146.38 Z" />
<path fill="#79787e" opacity="0.50" d=" M 492.17 146.06 C 493.07 147.16 493.89 148.68 493.18 150.11 C 491.52 149.47 491.74 147.42 492.17 146.06 Z" />
<path fill="#79787e" opacity="0.50" d=" M 6.12 151.17 C 5.47 149.68 5.73 147.98 6.91 146.84 C 7.55 148.33 7.29 150.01 6.12 151.17 Z" />
<path fill="#79787e" opacity="0.50" d=" M 193.93 146.97 C 195.70 146.87 196.22 147.65 195.51 149.29 C 194.62 148.76 194.09 147.99 193.93 146.97 Z" />
<path fill="#79787e" opacity="0.50" d=" M 305.65 148.34 C 307.38 147.85 308.07 148.48 307.71 150.25 C 306.74 149.91 306.06 149.27 305.65 148.34 Z" />
<path fill="#79787e" opacity="0.50" d=" M 347.92 149.09 C 349.65 147.93 351.93 150.82 350.41 152.27 C 349.50 151.27 348.64 150.22 347.92 149.09 Z" />
<path fill="#79787e" opacity="0.50" d=" M 44.53 152.86 C 43.24 151.55 43.45 150.61 45.15 150.05 C 45.30 151.06 45.09 152.00 44.53 152.86 Z" />
<path fill="#79787e" opacity="0.50" d=" M 454.85 150.35 C 456.57 150.80 456.84 151.72 455.64 153.11 C 455.01 152.29 454.74 151.37 454.85 150.35 Z" />
<path fill="#79787e" opacity="0.50" d=" M 285.22 151.09 C 286.54 151.23 287.73 151.85 288.82 152.60 C 287.83 154.24 284.47 153.01 285.22 151.09 Z" />
<path fill="#79787e" opacity="0.50" d=" M 309.44 151.41 C 313.52 153.56 318.38 155.64 319.84 160.45 C 316.54 157.25 312.88 154.46 309.44 151.41 Z" />
<path fill="#79787e" opacity="0.50" d=" M 492.87 151.12 C 494.13 151.54 494.60 152.42 494.26 153.75 C 492.86 153.37 492.40 152.49 492.87 151.12 Z" />
<path fill="#79787e" opacity="0.50" d=" M 118.40 154.97 C 117.20 153.57 117.48 152.67 119.23 152.25 C 119.31 153.27 119.03 154.17 118.40 154.97 Z" />
<path fill="#79787e" opacity="0.50" d=" M 198.08 152.97 C 199.88 152.76 200.44 153.50 199.77 155.20 C 198.90 154.69 198.33 153.95 198.08 152.97 Z" />
<path fill="#79787e" opacity="0.50" d=" M 350.80 153.05 C 352.59 152.92 353.14 153.70 352.46 155.37 C 351.58 154.82 351.02 154.05 350.80 153.05 Z" />
<path fill="#79787e" opacity="0.50" d=" M 455.87 154.11 C 457.57 154.66 457.80 155.60 456.55 156.93 C 455.96 156.07 455.73 155.13 455.87 154.11 Z" />
<path fill="#79787e" opacity="0.50" d=" M 294.05 154.97 C 295.07 155.11 295.84 155.63 296.35 156.54 C 294.71 157.25 293.94 156.73 294.05 154.97 Z" />
<path fill="#79787e" opacity="0.50" d=" M 337.55 154.82 C 338.52 155.70 339.35 156.72 340.04 157.84 C 338.38 159.07 336.02 156.25 337.55 154.82 Z" />
<path fill="#79787e" opacity="0.50" d=" M 200.07 155.86 C 201.88 155.73 202.41 156.51 201.65 158.18 C 200.82 157.61 200.29 156.84 200.07 155.86 Z" />
<path fill="#79787e" opacity="0.50" d=" M 352.82 156.10 C 354.60 155.89 355.18 156.63 354.56 158.33 C 353.66 157.83 353.08 157.09 352.82 156.10 Z" />
<path fill="#79787e" opacity="0.50" d=" M 493.74 157.03 C 495.54 157.99 495.40 160.22 495.00 161.92 C 493.92 160.53 493.15 158.79 493.74 157.03 Z" />
<path fill="#79787e" opacity="0.50" d=" M 299.98 158.98 C 300.98 159.09 301.79 159.55 302.42 160.33 C 300.82 161.24 300.01 160.79 299.98 158.98 Z" />
<path fill="#79787e" opacity="0.50" d=" M 340.53 158.51 C 341.30 159.16 341.76 159.98 341.92 160.97 C 340.10 160.95 339.63 160.13 340.53 158.51 Z" />
<path fill="#79787e" opacity="0.50" d=" M 354.95 158.92 C 356.78 158.75 357.32 159.51 356.58 161.20 C 355.75 160.64 355.21 159.88 354.95 158.92 Z" />
<path fill="#79787e" opacity="0.50" d=" M 456.93 159.39 C 458.80 159.20 459.16 162.37 457.54 162.97 C 457.14 161.81 456.90 160.61 456.93 159.39 Z" />
<path fill="#79787e" opacity="0.50" d=" M 4.09 164.08 C 3.44 162.61 3.72 160.96 4.84 159.81 C 5.52 161.26 5.34 162.99 4.09 164.08 Z" />
<path fill="#79787e" opacity="0.50" d=" M 42.48 163.06 C 41.18 161.77 41.38 160.83 43.07 160.25 C 43.25 161.26 43.05 162.20 42.48 163.06 Z" />
<path fill="#79787e" opacity="0.50" d=" M 203.06 160.91 C 204.88 160.85 205.37 161.64 204.54 163.28 C 203.73 162.68 203.24 161.89 203.06 160.91 Z" />
<path fill="#79787e" opacity="0.50" d=" M 302.91 160.80 C 306.93 164.34 310.72 168.15 314.26 172.18 C 309.90 169.03 305.67 165.49 302.91 160.80 Z" />
<path fill="#79787e" opacity="0.50" d=" M 320.27 160.92 C 321.86 162.65 323.42 164.41 324.86 166.27 C 323.35 164.46 321.81 162.69 320.27 160.92 Z" />
<path fill="#79787e" opacity="0.50" d=" M 495.09 162.66 C 495.43 165.51 495.69 168.34 496.08 171.20 C 495.70 168.36 495.37 165.50 495.09 162.66 Z" />
<path fill="#79787e" opacity="0.50" d=" M 457.77 164.11 C 459.64 163.87 460.10 167.06 458.44 167.65 C 458.02 166.51 457.78 165.32 457.77 164.11 Z" />
<path fill="#79787e" opacity="0.50" d=" M 3.21 171.36 C 3.33 169.68 3.56 166.32 3.68 164.64 C 3.56 166.32 3.33 169.68 3.21 171.36 Z" />
<path fill="#79787e" opacity="0.50" d=" M 41.55 169.69 C 39.76 168.99 39.97 165.35 42.10 165.48 C 42.05 166.89 41.85 168.30 41.55 169.69 Z" />
<path fill="#79787e" opacity="0.50" d=" M 344.30 164.83 C 345.18 165.32 345.75 166.06 346.00 167.04 C 344.21 167.26 343.64 166.53 344.30 164.83 Z" />
<path fill="#79787e" opacity="0.50" d=" M 262.30 166.35 C 263.05 166.19 264.55 165.88 265.30 165.72 C 263.60 167.31 261.88 168.87 260.13 170.40 C 260.86 169.05 261.58 167.70 262.30 166.35 Z" />
<path fill="#79787e" opacity="0.50" d=" M 269.37 166.62 C 270.03 164.80 273.67 165.12 273.45 167.23 C 272.06 167.19 270.69 166.99 269.37 166.62 Z" />
<path fill="#79787e" opacity="0.50" d=" M 326.01 168.04 C 327.80 167.73 328.41 168.44 327.84 170.17 C 326.94 169.71 326.33 169.00 326.01 168.04 Z" />
<path fill="#79787e" opacity="0.50" d=" M 347.21 169.68 C 348.54 172.13 349.80 174.63 350.83 177.22 C 349.45 174.79 348.24 172.27 347.21 169.68 Z" />
<path fill="#79787e" opacity="0.50" d=" M 208.17 171.30 L 208.13 170.62 C 208.28 173.79 208.45 177.02 208.50 180.21 C 208.49 177.24 208.31 174.25 208.17 171.30 Z" />
<path fill="#79787e" opacity="0.50" d=" M 328.09 170.84 C 329.90 170.79 330.39 171.59 329.55 173.23 C 328.75 172.62 328.26 171.83 328.09 170.84 Z" />
<path fill="#79787e" opacity="0.50" d=" M 40.67 176.56 C 38.86 175.91 39.05 172.23 41.19 172.40 C 41.15 173.80 40.97 175.19 40.67 176.56 Z" />
<path fill="#79787e" opacity="0.50" d=" M 289.72 172.43 C 291.39 171.64 292.17 172.16 292.05 173.99 C 291.07 173.76 290.30 173.24 289.72 172.43 Z" />
<path fill="#79787e" opacity="0.50" d=" M 458.98 172.33 C 460.86 172.15 461.11 175.36 459.42 175.82 C 459.04 174.69 458.87 173.51 458.98 172.33 Z" />
<path fill="#79787e" opacity="0.50" d=" M 314.74 172.71 C 315.67 173.63 316.43 174.69 317.06 175.84 C 315.33 177.01 313.14 174.05 314.74 172.71 Z" />
<path fill="#79787e" opacity="0.50" d=" M 260.27 174.45 C 261.60 175.46 262.78 176.66 263.79 178.00 C 261.82 179.22 258.91 176.39 260.27 174.45 Z" />
<path fill="#79787e" opacity="0.50" d=" M 362.89 174.34 C 364.88 173.46 366.22 176.94 364.43 177.93 C 363.79 176.78 363.24 175.59 362.89 174.34 Z" />
<path fill="#79787e" opacity="0.50" d=" M 293.79 175.14 C 296.17 177.46 298.57 179.78 300.76 182.29 C 298.51 179.83 296.15 177.48 293.79 175.14 Z" />
<path fill="#79787e" opacity="0.50" d=" M 317.51 176.54 C 318.27 177.20 318.72 178.02 318.88 179.02 C 317.05 178.98 316.60 178.15 317.51 176.54 Z" />
<path fill="#79787e" opacity="0.50" d=" M 265.17 177.85 C 266.36 177.57 267.56 177.91 268.68 178.32 C 268.14 179.89 265.05 179.67 265.17 177.85 Z" />
<path fill="#79787e" opacity="0.50" d=" M 332.07 178.02 C 333.81 177.15 335.16 180.16 333.54 181.05 C 332.86 180.13 332.35 179.11 332.07 178.02 Z" />
<path fill="#79787e" opacity="0.50" d=" M 272.18 178.86 C 273.20 178.67 274.12 178.90 274.95 179.52 C 273.63 180.77 272.71 180.55 272.18 178.86 Z" />
<path fill="#79787e" opacity="0.50" d=" M 459.91 179.47 C 462.03 179.29 462.20 182.97 460.38 183.59 C 460.07 182.23 459.91 180.85 459.91 179.47 Z" />
<path fill="#79787e" opacity="0.50" d=" M 497.20 178.71 C 499.33 189.39 498.78 200.30 499.29 211.12 C 497.75 200.39 497.44 189.53 497.20 178.71 Z" />
<path fill="#79787e" opacity="0.50" d=" M 39.47 186.31 C 37.44 185.62 37.74 181.46 40.04 181.56 C 39.90 182.75 39.61 185.12 39.47 186.31 Z" />
<path fill="#79787e" opacity="0.50" d=" M 125.38 182.15 C 126.12 183.23 126.71 184.41 127.06 185.68 C 125.14 186.56 123.67 183.21 125.38 182.15 Z" />
<path fill="#79787e" opacity="0.50" d=" M 320.59 181.75 C 321.44 182.54 322.02 183.58 322.12 184.76 C 320.49 185.47 319.15 182.67 320.59 181.75 Z" />
<path fill="#79787e" opacity="0.50" d=" M 283.88 183.08 C 284.88 183.22 285.66 183.71 286.23 184.57 C 284.60 185.36 283.81 184.87 283.88 183.08 Z" />
<path fill="#79787e" opacity="0.50" d=" M 0.52 196.11 C 1.05 192.69 1.52 189.24 1.98 185.82 C 1.61 189.27 1.07 192.68 0.52 196.11 Z" />
<path fill="#79787e" opacity="0.50" d=" M 203.57 187.65 C 203.98 186.73 204.66 186.08 205.61 185.71 C 206.00 187.48 205.32 188.13 203.57 187.65 Z" />
<path fill="#79787e" opacity="0.50" d=" M 288.20 185.94 C 289.18 186.30 289.81 186.99 290.09 188.01 C 288.36 188.33 287.73 187.64 288.20 185.94 Z" />
<path fill="#79787e" opacity="0.50" d=" M 198.90 192.35 C 200.04 191.16 201.21 190.00 202.44 188.90 C 203.88 190.82 200.81 193.92 198.90 192.35 Z" />
<path fill="#79787e" opacity="0.50" d=" M 290.47 188.80 C 291.35 189.31 291.95 190.05 292.28 191.02 C 290.47 191.27 289.86 190.53 290.47 188.80 Z" />
<path fill="#79787e" opacity="0.50" d=" M 461.02 189.55 C 463.33 189.52 463.43 193.71 461.35 194.28 C 461.27 193.10 461.10 190.73 461.02 189.55 Z" />
<path fill="#79787e" opacity="0.50" d=" M 38.10 200.30 C 38.26 197.47 38.41 194.64 38.74 191.82 C 38.48 194.65 38.29 197.46 38.10 200.30 Z" />
<path fill="#79787e" opacity="0.50" d=" M 292.72 191.85 C 293.61 193.32 294.54 194.82 294.78 196.55 C 292.59 197.12 291.14 193.29 292.72 191.85 Z" />
<path fill="#79787e" opacity="0.50" d=" M 186.91 203.93 C 188.90 199.33 193.15 196.44 197.19 193.77 C 194.13 197.51 190.52 200.75 186.91 203.93 Z" />
<path fill="#79787e" opacity="0.50" d=" M 369.86 195.35 C 371.58 195.80 371.84 196.72 370.65 198.11 C 370.01 197.29 369.75 196.37 369.86 195.35 Z" />
<path fill="#79787e" opacity="0.50" d=" M 307.70 198.28 C 309.46 198.66 309.76 199.56 308.59 200.97 C 307.94 200.19 307.64 199.29 307.70 198.28 Z" />
<path fill="#79787e" opacity="0.50" d=" M 358.41 198.07 C 359.05 198.89 359.26 199.81 359.06 200.82 C 357.37 200.30 357.16 199.38 358.41 198.07 Z" />
<path fill="#79787e" opacity="0.50" d=" M 0.00 198.49 L 0.02 199.34 C 0.33 208.05 0.30 216.78 0.00 225.50 L 0.00 198.49 Z" />
<path fill="#79787e" opacity="0.50" d=" M 370.87 199.11 C 372.57 199.65 372.80 200.59 371.56 201.92 C 370.96 201.07 370.73 200.13 370.87 199.11 Z" />
<path fill="#79787e" opacity="0.50" d=" M 327.52 200.24 C 328.16 201.05 328.44 201.98 328.37 203.02 C 326.63 202.56 326.35 201.64 327.52 200.24 Z" />
<path fill="#79787e" opacity="0.50" d=" M 339.81 200.22 C 341.53 200.75 341.75 201.67 340.47 202.99 C 339.89 202.15 339.67 201.22 339.81 200.22 Z" />
<path fill="#79787e" opacity="0.50" d=" M 296.50 203.22 C 296.99 204.29 297.16 205.47 297.05 206.65 C 295.20 206.87 294.85 203.72 296.50 203.22 Z" />
<path fill="#79787e" opacity="0.50" d=" M 328.55 204.18 C 328.87 205.57 329.10 206.99 329.03 208.42 C 326.93 208.47 326.83 204.89 328.55 204.18 Z" />
<path fill="#79787e" opacity="0.50" d=" M 371.92 204.30 C 373.80 204.12 374.10 207.33 372.43 207.85 C 372.06 206.70 371.87 205.50 371.92 204.30 Z" />
<path fill="#79787e" opacity="0.50" d=" M 309.02 205.31 C 310.89 205.12 311.15 208.32 309.47 208.78 C 309.07 207.67 308.88 206.49 309.02 205.31 Z" />
<path fill="#79787e" opacity="0.50" d=" M 340.95 206.63 C 343.39 206.87 343.26 211.25 341.37 212.34 C 341.18 210.43 341.04 208.52 340.95 206.63 Z" />
<path fill="#79787e" opacity="0.50" d=" M 461.95 207.00 L 462.99 207.03 C 463.11 218.43 463.49 229.90 462.32 241.27 C 462.15 229.84 462.04 218.42 461.95 207.00 Z" />
<path fill="#79787e" opacity="0.50" d=" M 185.24 213.55 C 184.59 211.93 184.61 210.25 185.30 208.53 C 187.15 209.39 187.11 212.73 185.24 213.55 Z" />
<path fill="#79787e" opacity="0.50" d=" M 360.50 209.24 C 361.02 210.30 361.30 211.47 361.25 212.66 C 359.42 212.98 358.88 209.85 360.50 209.24 Z" />
<path fill="#79787e" opacity="0.50" d=" M 372.83 210.41 C 374.94 210.21 375.23 213.86 373.44 214.55 C 373.09 213.19 372.88 211.81 372.83 210.41 Z" />
<path fill="#79787e" opacity="0.50" d=" M 140.53 212.62 C 141.42 213.16 141.91 213.95 142.00 214.98 C 140.24 215.01 139.75 214.22 140.53 212.62 Z" />
<path fill="#79787e" opacity="0.50" d=" M 298.11 213.92 C 299.03 214.28 299.72 214.91 300.16 215.81 C 298.40 216.34 297.72 215.71 298.11 213.92 Z" />
<path fill="#79787e" opacity="0.50" d=" M 306.84 215.82 C 307.25 214.91 307.91 214.25 308.82 213.84 C 309.28 215.62 308.62 216.28 306.84 215.82 Z" />
<path fill="#79787e" opacity="0.50" d=" M 329.18 213.70 C 329.40 216.74 329.54 219.76 329.82 222.81 L 329.87 223.46 C 329.52 220.18 329.36 216.97 329.18 213.70 Z" />
<path fill="#79787e" opacity="0.50" d=" M 361.57 216.57 C 361.74 218.47 361.87 220.39 361.94 222.32 C 359.52 222.06 359.71 217.68 361.57 216.57 Z" />
<path fill="#79787e" opacity="0.50" d=" M 374.23 220.21 L 374.19 219.48 C 374.35 222.72 374.68 226.04 374.77 229.31 C 374.55 226.28 374.38 223.22 374.23 220.21 Z" />
<path fill="#79787e" opacity="0.50" d=" M 37.03 260.01 C 36.95 246.92 36.38 233.77 37.70 220.73 C 37.95 233.82 38.01 246.90 37.96 259.99 L 37.03 260.01 Z" />
<path fill="#79787e" opacity="0.50" d=" M 145.30 221.82 C 146.15 222.37 146.69 223.13 146.90 224.12 C 145.10 224.26 144.56 223.50 145.30 221.82 Z" />
<path fill="#79787e" opacity="0.50" d=" M 148.48 227.10 C 149.37 228.29 150.21 229.52 151.00 230.78 C 149.00 232.01 146.77 228.58 148.48 227.10 Z" />
<path fill="#79787e" opacity="0.50" d=" M 334.47 227.03 C 335.43 226.91 336.39 226.83 337.36 226.77 C 338.16 228.81 333.95 229.18 334.47 227.03 Z" />
<path fill="#79787e" opacity="0.50" d=" M 190.73 228.41 C 192.43 227.66 193.74 230.59 192.21 231.52 C 191.50 230.59 190.94 229.56 190.73 228.41 Z" />
<path fill="#79787e" opacity="0.50" d=" M 151.51 231.44 C 152.35 232.04 152.82 232.85 152.94 233.88 C 151.16 233.85 150.68 233.04 151.51 231.44 Z" />
<path fill="#79787e" opacity="0.50" d=" M 192.60 232.28 C 194.25 231.43 195.79 234.27 194.29 235.28 C 193.49 234.42 192.94 233.39 192.60 232.28 Z" />
<path fill="#79787e" opacity="0.50" d=" M 370.44 239.54 C 372.05 238.10 373.59 236.57 375.13 235.05 C 375.03 235.73 374.84 237.09 374.74 237.77 C 373.30 238.36 371.87 238.95 370.44 239.54 Z" />
<path fill="#79787e" opacity="0.50" d=" M 154.49 236.70 C 155.37 237.23 155.89 238.01 156.06 239.03 C 154.28 239.11 153.76 238.33 154.49 236.70 Z" />
<path fill="#79787e" opacity="0.50" d=" M 498.35 266.27 C 498.66 256.67 499.34 247.10 500.00 237.52 L 500.00 255.45 C 499.44 259.05 498.89 262.65 498.35 266.27 Z" />
<path fill="#79787e" opacity="0.50" d=" M 156.32 239.79 C 157.17 240.31 157.75 241.05 158.03 242.03 C 156.22 242.24 155.65 241.49 156.32 239.79 Z" />
<path fill="#79787e" opacity="0.50" d=" M 197.18 240.24 C 199.33 239.26 200.93 243.00 199.20 244.29 C 198.44 242.98 197.75 241.64 197.18 240.24 Z" />
<path fill="#79787e" opacity="0.50" d=" M 158.39 242.68 C 159.32 243.12 159.95 243.82 160.30 244.79 C 158.52 245.11 157.88 244.41 158.39 242.68 Z" />
<path fill="#79787e" opacity="0.50" d=" M 199.59 245.08 C 201.37 244.82 201.97 245.55 201.40 247.27 C 200.49 246.79 199.88 246.06 199.59 245.08 Z" />
<path fill="#79787e" opacity="0.50" d=" M 0.00 245.46 C 0.15 251.46 0.16 257.47 0.04 263.49 L 0.00 264.65 L 0.00 245.46 Z" />
<path fill="#79787e" opacity="0.50" d=" M 160.88 245.55 C 161.77 246.24 162.09 247.11 161.82 248.15 C 160.17 247.78 159.86 246.91 160.88 245.55 Z" />
<path fill="#79787e" opacity="0.50" d=" M 161.56 249.39 C 162.64 249.08 163.43 249.47 163.93 250.56 C 162.53 251.40 161.75 251.01 161.56 249.39 Z" />
<path fill="#79787e" opacity="0.50" d=" M 202.93 248.88 C 204.34 250.59 205.64 252.38 206.90 254.20 C 205.54 252.45 204.27 250.64 202.93 248.88 Z" />
<path fill="#79787e" opacity="0.50" d=" M 165.56 252.70 C 166.42 253.24 166.97 254.01 167.21 255.01 C 165.41 255.15 164.86 254.38 165.56 252.70 Z" />
<path fill="#79787e" opacity="0.50" d=" M 461.25 262.17 C 461.53 259.36 461.70 256.50 461.96 253.70 C 461.75 256.53 461.59 259.36 461.25 262.17 Z" />
<path fill="#79787e" opacity="0.50" d=" M 167.59 255.73 C 168.49 256.71 169.33 257.75 170.06 258.87 C 168.33 260.07 166.04 257.16 167.59 255.73 Z" />
<path fill="#79787e" opacity="0.50" d=" M 209.23 257.30 C 211.25 255.88 213.98 259.27 212.31 261.03 C 211.22 259.84 210.15 258.62 209.23 257.30 Z" />
<path fill="#79787e" opacity="0.50" d=" M 170.59 259.57 C 171.48 260.54 172.32 261.55 173.03 262.67 C 171.31 263.93 169.02 260.98 170.59 259.57 Z" />
<path fill="#79787e" opacity="0.50" d=" M 214.97 264.55 C 216.79 263.31 219.70 266.17 218.47 268.00 C 217.03 267.16 215.83 265.98 214.97 264.55 Z" />
<path fill="#79787e" opacity="0.50" d=" M 0.23 264.58 C 0.97 268.11 1.37 271.67 1.78 275.26 C 1.32 271.70 0.78 268.12 0.23 264.58 Z" />
<path fill="#79787e" opacity="0.50" d=" M 174.72 264.80 C 175.84 265.98 176.91 267.23 177.81 268.59 C 175.82 269.90 173.06 266.54 174.72 264.80 Z" />
<path fill="#79787e" opacity="0.50" d=" M 459.90 272.41 C 460.05 271.23 460.35 268.87 460.50 267.68 C 462.52 268.38 462.20 272.53 459.90 272.41 Z" />
<path fill="#79787e" opacity="0.50" d=" M 178.22 269.16 C 180.07 271.57 182.06 273.87 183.97 276.24 C 181.27 274.61 178.89 272.37 178.22 269.16 Z" />
<path fill="#79787e" opacity="0.50" d=" M 221.87 270.51 C 223.24 268.85 226.24 271.18 224.87 272.88 C 223.80 272.18 222.80 271.38 221.87 270.51 Z" />
<path fill="#79787e" opacity="0.50" d=" M 299.54 271.81 C 302.26 271.85 307.69 271.93 310.41 271.97 L 309.71 271.93 C 306.57 271.76 303.37 271.76 300.24 271.80 L 299.54 271.81 Z" />
<path fill="#79787e" opacity="0.50" d=" M 38.67 273.42 C 38.92 274.77 39.07 276.14 39.06 277.53 C 36.90 277.69 36.82 273.98 38.67 273.42 Z" />
<path fill="#79787e" opacity="0.50" d=" M 288.25 280.43 C 290.03 278.18 291.92 276.02 293.91 273.95 C 291.93 276.02 290.06 278.20 288.25 280.43 Z" />
<path fill="#79787e" opacity="0.50" d=" M 227.83 275.47 C 229.21 273.98 232.05 276.25 230.83 277.89 C 229.64 277.34 228.67 276.45 227.83 275.47 Z" />
<path fill="#79787e" opacity="0.50" d=" M 317.53 275.63 C 319.14 274.81 319.94 275.30 319.92 277.09 C 318.90 276.96 318.11 276.47 317.53 275.63 Z" />
<path fill="#79787e" opacity="0.50" d=" M 458.88 282.46 C 459.00 281.27 459.25 278.89 459.37 277.71 C 461.41 278.35 461.19 282.51 458.88 282.46 Z" />
<path fill="#79787e" opacity="0.50" d=" M 322.85 278.28 C 324.57 277.65 325.29 278.24 325.03 280.05 C 324.07 279.74 323.34 279.15 322.85 278.28 Z" />
<path fill="#79787e" opacity="0.50" d=" M 234.58 280.58 C 236.23 279.88 236.99 280.41 236.85 282.19 C 235.85 282.01 235.09 281.47 234.58 280.58 Z" />
<path fill="#79787e" opacity="0.50" d=" M 325.57 280.48 C 327.22 279.75 327.99 280.27 327.89 282.05 C 326.88 281.88 326.10 281.36 325.57 280.48 Z" />
<path fill="#79787e" opacity="0.50" d=" M 187.93 280.75 C 191.00 283.84 194.08 286.89 197.19 289.95 C 193.51 287.55 189.65 284.98 187.93 280.75 Z" />
<path fill="#79787e" opacity="0.50" d=" M 285.63 284.28 C 284.02 282.98 286.12 279.97 287.85 281.12 C 287.29 282.29 286.56 283.37 285.63 284.28 Z" />
<path fill="#79787e" opacity="0.50" d=" M 39.57 282.41 C 39.88 283.76 40.07 285.14 40.08 286.53 C 37.95 286.71 37.76 283.03 39.57 282.41 Z" />
<path fill="#79787e" opacity="0.50" d=" M 496.14 289.23 C 494.77 286.91 494.98 284.45 496.76 281.85 C 498.16 284.13 497.95 286.59 496.14 289.23 Z" />
<path fill="#79787e" opacity="0.50" d=" M 330.82 283.37 C 332.47 282.58 333.25 283.09 333.16 284.91 C 332.17 284.71 331.39 284.19 330.82 283.37 Z" />
<path fill="#79787e" opacity="0.50" d=" M 241.61 284.25 C 244.25 285.24 246.78 286.49 249.15 288.04 C 246.57 286.89 244.07 285.60 241.61 284.25 Z" />
<path fill="#79787e" opacity="0.50" d=" M 333.83 285.19 C 335.55 284.58 336.28 285.17 335.99 286.98 C 335.03 286.66 334.31 286.07 333.83 285.19 Z" />
<path fill="#79787e" opacity="0.50" d=" M 277.65 291.95 C 279.48 289.58 281.74 287.61 284.18 285.90 C 282.25 288.16 280.10 290.24 277.65 291.95 Z" />
<path fill="#79787e" opacity="0.50" d=" M 457.84 291.53 C 457.99 290.33 458.28 287.91 458.43 286.70 C 460.45 287.44 460.12 291.54 457.84 291.53 Z" />
<path fill="#79787e" opacity="0.50" d=" M 337.75 288.47 C 339.42 287.81 340.18 288.37 340.02 290.16 C 339.01 289.93 338.25 289.37 337.75 288.47 Z" />
<path fill="#79787e" opacity="0.50" d=" M 3.26 288.79 C 3.78 292.59 4.30 296.39 4.83 300.21 C 4.25 296.41 3.73 292.59 3.26 288.79 Z" />
<path fill="#79787e" opacity="0.50" d=" M 40.58 290.20 C 40.94 291.32 41.12 292.50 41.03 293.70 C 39.14 293.87 38.88 290.65 40.58 290.20 Z" />
<path fill="#79787e" opacity="0.50" d=" M 340.78 290.50 C 342.17 288.87 345.17 291.17 343.84 292.90 C 342.76 292.17 341.75 291.35 340.78 290.50 Z" />
<path fill="#79787e" opacity="0.50" d=" M 495.10 295.12 C 494.45 293.31 494.74 291.32 496.02 289.86 C 496.63 291.66 496.34 293.64 495.10 295.12 Z" />
<path fill="#79787e" opacity="0.50" d=" M 263.05 293.72 C 264.36 292.49 265.28 292.71 265.80 294.39 C 264.78 294.61 263.87 294.39 263.05 293.72 Z" />
<path fill="#79787e" opacity="0.50" d=" M 201.82 294.01 C 203.72 295.55 205.56 297.17 207.41 298.78 C 205.21 297.63 203.42 295.88 201.82 294.01 Z" />
<path fill="#79787e" opacity="0.50" d=" M 345.89 294.65 C 347.77 293.18 350.86 296.05 349.73 298.06 C 348.34 297.04 347.08 295.88 345.89 294.65 Z" />
<path fill="#79787e" opacity="0.50" d=" M 456.97 297.65 C 456.86 296.45 457.03 295.25 457.39 294.11 C 459.06 294.58 458.85 297.78 456.97 297.65 Z" />
<path fill="#79787e" opacity="0.50" d=" M 41.46 297.09 C 42.03 297.94 42.23 298.87 42.07 299.89 C 40.37 299.32 40.17 298.38 41.46 297.09 Z" />
<path fill="#79787e" opacity="0.50" d=" M 350.48 298.66 C 351.85 297.09 354.84 299.26 353.66 301.02 C 352.51 300.34 351.45 299.54 350.48 298.66 Z" />
<path fill="#79787e" opacity="0.50" d=" M 207.93 299.22 C 209.78 300.71 211.57 302.28 213.42 303.77 C 211.49 302.38 209.69 300.81 207.93 299.22 Z" />
<path fill="#79787e" opacity="0.50" d=" M 455.93 303.90 C 455.76 302.88 455.96 301.94 456.55 301.09 C 457.83 302.39 457.62 303.32 455.93 303.90 Z" />
<path fill="#79787e" opacity="0.50" d=" M 494.02 306.18 C 493.46 304.37 493.76 302.44 494.90 300.93 C 495.56 302.71 495.44 304.79 494.02 306.18 Z" />
<path fill="#79787e" opacity="0.50" d=" M 42.40 302.05 C 42.99 302.89 43.21 303.83 43.06 304.85 C 41.36 304.31 41.14 303.37 42.40 302.05 Z" />
<path fill="#79787e" opacity="0.50" d=" M 355.75 302.56 C 357.12 300.95 360.07 303.26 358.78 304.96 C 357.67 304.28 356.67 303.46 355.75 302.56 Z" />
<path fill="#79787e" opacity="0.50" d=" M 215.28 305.07 C 216.42 305.72 217.46 306.53 218.46 307.39 C 217.10 308.99 214.07 306.83 215.28 305.07 Z" />
<path fill="#79787e" opacity="0.50" d=" M 454.86 308.90 C 454.74 307.87 454.98 306.94 455.59 306.10 C 456.82 307.45 456.57 308.39 454.86 308.90 Z" />
<path fill="#79787e" opacity="0.50" d=" M 43.41 307.10 C 44.01 307.94 44.25 308.87 44.14 309.90 C 42.42 309.38 42.18 308.45 43.41 307.10 Z" />
<path fill="#79787e" opacity="0.50" d=" M 493.37 311.02 C 492.76 309.69 492.41 307.98 493.57 306.83 C 494.82 307.99 494.19 309.81 493.37 311.02 Z" />
<path fill="#79787e" opacity="0.50" d=" M 6.09 307.83 C 7.20 308.75 7.45 309.86 6.84 311.18 C 5.75 310.25 5.50 309.14 6.09 307.83 Z" />
<path fill="#79787e" opacity="0.50" d=" M 219.18 307.92 C 220.32 308.64 221.38 309.48 222.38 310.38 C 220.95 311.91 218.03 309.67 219.18 307.92 Z" />
<path fill="#79787e" opacity="0.50" d=" M 453.97 312.69 C 453.80 311.67 454.02 310.73 454.63 309.89 C 455.88 311.22 455.66 312.15 453.97 312.69 Z" />
<path fill="#79787e" opacity="0.50" d=" M 44.36 310.89 C 44.97 311.72 45.21 312.65 45.08 313.68 C 43.37 313.17 43.13 312.25 44.36 310.89 Z" />
<path fill="#79787e" opacity="0.50" d=" M 223.11 310.94 C 224.23 311.68 225.25 312.55 226.22 313.48 C 224.76 314.98 221.90 312.65 223.11 310.94 Z" />
<path fill="#79787e" opacity="0.50" d=" M 226.91 313.93 C 227.87 314.21 228.64 314.77 229.19 315.62 C 227.49 316.31 226.73 315.75 226.91 313.93 Z" />
<path fill="#79787e" opacity="0.50" d=" M 229.98 315.92 C 230.99 316.10 231.75 316.65 232.25 317.56 C 230.59 318.23 229.83 317.68 229.98 315.92 Z" />
<path fill="#79787e" opacity="0.50" d=" M 7.95 316.92 C 9.18 317.68 9.56 318.75 9.09 320.11 C 7.91 319.35 7.53 318.29 7.95 316.92 Z" />
<path fill="#79787e" opacity="0.50" d=" M 365.99 317.35 C 367.86 316.57 367.93 320.37 366.04 319.65 C 366.03 319.08 366.00 317.93 365.99 317.35 Z" />
<path fill="#79787e" opacity="0.50" d=" M 491.15 322.18 C 490.55 320.86 490.81 319.75 491.93 318.84 C 492.50 320.15 492.24 321.27 491.15 322.18 Z" />
<path fill="#79787e" opacity="0.50" d=" M 236.07 320.05 C 237.09 320.15 237.90 320.62 238.50 321.47 C 236.90 322.30 236.09 321.82 236.07 320.05 Z" />
<path fill="#79787e" opacity="0.50" d=" M 8.93 320.87 C 10.08 321.76 10.33 322.87 9.70 324.20 C 8.64 323.28 8.38 322.17 8.93 320.87 Z" />
<path fill="#79787e" opacity="0.50" d=" M 239.21 321.84 C 240.20 322.09 240.96 322.67 241.48 323.56 C 239.78 324.20 239.03 323.62 239.21 321.84 Z" />
<path fill="#79787e" opacity="0.50" d=" M 242.21 324.03 C 243.58 324.71 244.93 325.45 246.25 326.24 C 244.86 327.92 241.22 326.17 242.21 324.03 Z" />
<path fill="#79787e" opacity="0.50" d=" M 247.05 326.64 C 248.03 326.93 248.76 327.54 249.24 328.46 C 247.52 329.02 246.79 328.42 247.05 326.64 Z" />
<path fill="#79787e" opacity="0.50" d=" M 361.66 329.96 C 361.95 328.97 362.55 328.24 363.47 327.77 C 364.04 329.47 363.44 330.20 361.66 329.96 Z" />
<path fill="#79787e" opacity="0.50" d=" M 251.83 330.18 C 252.82 330.36 253.60 330.88 254.17 331.72 C 252.50 332.49 251.72 331.98 251.83 330.18 Z" />
<path fill="#79787e" opacity="0.50" d=" M 358.99 334.63 C 359.70 333.30 360.46 332.01 361.26 330.74 C 362.98 332.12 361.10 335.76 358.99 334.63 Z" />
<path fill="#79787e" opacity="0.50" d=" M 488.02 334.18 C 487.53 332.81 487.90 331.73 489.10 330.94 C 489.55 332.29 489.19 333.37 488.02 334.18 Z" />
<path fill="#79787e" opacity="0.50" d=" M 263.35 336.06 C 264.78 336.49 266.05 337.29 267.17 338.27 C 265.83 339.86 262.38 338.04 263.35 336.06 Z" />
<path fill="#79787e" opacity="0.50" d=" M 355.04 339.77 C 355.59 338.57 356.42 337.54 357.38 336.65 C 358.88 337.98 356.74 340.92 355.04 339.77 Z" />
<path fill="#79787e" opacity="0.50" d=" M 485.26 343.39 C 484.70 341.28 485.36 339.16 486.95 337.68 C 487.33 339.77 486.69 341.83 485.26 343.39 Z" />
<path fill="#79787e" opacity="0.50" d=" M 14.75 341.73 C 16.46 342.58 17.38 344.37 17.14 346.26 C 15.60 345.25 14.72 343.56 14.75 341.73 Z" />
<path fill="#79787e" opacity="0.50" d=" M 342.61 352.83 C 346.35 349.07 350.18 345.40 353.89 341.62 C 351.24 346.25 347.34 350.31 342.61 352.83 Z" />
<path fill="#79787e" opacity="0.50" d=" M 56.69 344.85 C 57.64 345.99 58.43 347.26 59.01 348.63 C 57.02 349.69 55.05 346.23 56.69 344.85 Z" />
<path fill="#79787e" opacity="0.50" d=" M 439.22 350.84 C 439.73 349.44 440.44 348.11 441.33 346.92 C 442.99 348.22 441.28 351.82 439.22 350.84 Z" />
<path fill="#79787e" opacity="0.50" d=" M 60.78 351.92 C 61.61 353.19 62.35 354.52 63.04 355.88 C 60.93 356.88 59.08 353.30 60.78 351.92 Z" />
<path fill="#79787e" opacity="0.50" d=" M 339.64 354.62 C 340.14 353.71 340.91 353.19 341.94 353.04 C 342.04 354.80 341.28 355.33 339.64 354.62 Z" />
<path fill="#79787e" opacity="0.50" d=" M 299.25 354.04 C 300.54 354.30 301.74 354.89 302.82 355.65 C 301.78 357.32 298.43 355.96 299.25 354.04 Z" />
<path fill="#79787e" opacity="0.50" d=" M 19.81 355.10 C 21.30 354.84 22.60 356.23 22.44 357.69 C 20.97 357.80 20.00 356.41 19.81 355.10 Z" />
<path fill="#79787e" opacity="0.50" d=" M 63.53 356.67 C 64.44 357.64 65.31 358.67 66.07 359.78 C 64.35 361.00 62.02 358.13 63.53 356.67 Z" />
<path fill="#79787e" opacity="0.50" d=" M 434.10 359.17 C 434.29 358.18 434.81 357.40 435.65 356.83 C 436.42 358.49 435.90 359.27 434.10 359.17 Z" />
<path fill="#79787e" opacity="0.50" d=" M 431.91 361.90 C 432.27 360.96 432.91 360.27 433.83 359.85 C 434.33 361.60 433.69 362.29 431.91 361.90 Z" />
<path fill="#79787e" opacity="0.50" d=" M 22.74 361.16 C 24.17 361.10 25.42 362.49 25.11 363.92 C 23.68 363.91 22.63 362.52 22.74 361.16 Z" />
<path fill="#79787e" opacity="0.50" d=" M 66.65 360.49 C 67.48 361.09 68.00 361.90 68.20 362.92 C 66.40 362.95 65.88 362.14 66.65 360.49 Z" />
<path fill="#79787e" opacity="0.50" d=" M 68.64 363.77 C 69.73 365.02 70.82 366.27 71.78 367.64 C 69.71 368.92 67.03 365.57 68.64 363.77 Z" />
<path fill="#79787e" opacity="0.50" d=" M 427.19 367.67 C 428.14 366.31 429.23 365.07 430.40 363.89 C 432.00 365.68 429.16 368.94 427.19 367.67 Z" />
<path fill="#79787e" opacity="0.50" d=" M 25.09 364.78 C 26.59 364.90 27.46 366.48 27.19 367.87 C 25.75 367.68 24.83 366.16 25.09 364.78 Z" />
<path fill="#79787e" opacity="0.50" d=" M 473.07 370.27 C 473.30 368.72 474.12 368.06 475.54 368.26 C 475.24 369.54 474.42 370.21 473.07 370.27 Z" />
<path fill="#79787e" opacity="0.50" d=" M 27.17 368.84 C 28.49 368.79 29.20 369.44 29.28 370.81 C 27.82 370.93 27.12 370.27 27.17 368.84 Z" />
<path fill="#79787e" opacity="0.50" d=" M 411.65 382.85 C 416.92 378.25 422.04 373.46 426.72 368.26 C 423.75 374.89 418.12 379.80 411.65 382.85 Z" />
<path fill="#79787e" opacity="0.50" d=" M 74.18 370.56 C 77.00 373.27 79.69 376.10 82.40 378.92 C 78.81 377.12 76.10 374.03 74.18 370.56 Z" />
<path fill="#79787e" opacity="0.50" d=" M 29.81 374.09 C 31.19 373.83 31.95 374.40 32.10 375.81 C 30.74 376.04 29.97 375.46 29.81 374.09 Z" />
<path fill="#79787e" opacity="0.50" d=" M 32.68 379.38 C 33.90 379.05 34.74 379.50 35.20 380.75 C 33.78 381.29 32.94 380.83 32.68 379.38 Z" />
<path fill="#79787e" opacity="0.50" d=" M 85.32 381.25 C 86.69 382.17 87.96 383.24 89.23 384.30 C 87.45 385.95 84.05 383.32 85.32 381.25 Z" />
<path fill="#79787e" opacity="0.50" d=" M 463.07 386.15 C 464.31 384.35 465.53 382.54 466.78 380.74 C 465.58 382.57 464.35 384.38 463.07 386.15 Z" />
<path fill="#79787e" opacity="0.50" d=" M 407.75 385.72 C 408.24 384.84 408.97 384.26 409.94 383.97 C 410.19 385.77 409.46 386.35 407.75 385.72 Z" />
<path fill="#79787e" opacity="0.50" d=" M 90.00 384.73 C 90.99 385.01 91.72 385.61 92.20 386.53 C 90.49 387.10 89.76 386.50 90.00 384.73 Z" />
<path fill="#79787e" opacity="0.50" d=" M 404.67 387.51 C 405.20 386.62 405.98 386.10 407.01 385.96 C 407.08 387.72 406.30 388.24 404.67 387.51 Z" />
<path fill="#79787e" opacity="0.50" d=" M 38.64 386.72 C 40.48 387.16 41.81 388.69 41.86 390.61 C 40.21 389.90 38.96 388.51 38.64 386.72 Z" />
<path fill="#79787e" opacity="0.50" d=" M 96.04 389.04 C 97.06 389.16 97.85 389.65 98.43 390.52 C 96.81 391.30 96.01 390.81 96.04 389.04 Z" />
<path fill="#79787e" opacity="0.50" d=" M 42.21 391.03 C 44.08 393.10 45.96 395.17 47.83 397.25 C 45.85 395.27 43.96 393.21 42.21 391.03 Z" />
<path fill="#79787e" opacity="0.50" d=" M 98.98 390.94 C 99.92 391.26 100.64 391.86 101.14 392.73 C 99.40 393.34 98.68 392.74 98.98 390.94 Z" />
<path fill="#79787e" opacity="0.50" d=" M 396.80 392.67 C 397.37 391.82 398.15 391.32 399.14 391.14 C 399.23 392.94 398.45 393.45 396.80 392.67 Z" />
<path fill="#79787e" opacity="0.50" d=" M 441.65 408.72 C 446.55 403.59 451.60 398.60 456.84 393.81 C 452.11 399.11 447.06 404.11 441.65 408.72 Z" />
<path fill="#79787e" opacity="0.50" d=" M 108.11 396.04 C 109.25 396.19 110.28 396.75 111.12 397.55 C 110.20 399.05 107.33 397.69 108.11 396.04 Z" />
<path fill="#79787e" opacity="0.50" d=" M 51.79 401.18 C 53.57 402.75 55.39 404.27 57.17 405.85 C 55.34 404.34 53.52 402.81 51.79 401.18 Z" />
<path fill="#79787e" opacity="0.50" d=" M 375.09 401.67 C 375.87 401.00 376.78 400.74 377.81 400.88 C 377.36 402.59 376.45 402.86 375.09 401.67 Z" />
<path fill="#79787e" opacity="0.50" d=" M 57.72 406.33 C 59.71 407.99 61.46 409.91 62.99 411.99 C 61.34 410.01 59.59 408.11 57.72 406.33 Z" />
<path fill="#79787e" opacity="0.50" d=" M 134.12 406.02 C 135.51 405.58 136.39 407.01 135.58 408.14 C 135.21 407.61 134.49 406.55 134.12 406.02 Z" />
<path fill="#79787e" opacity="0.50" d=" M 355.91 406.62 C 356.75 406.02 357.68 405.80 358.71 405.96 C 358.17 407.65 357.24 407.87 355.91 406.62 Z" />
<path fill="#79787e" opacity="0.50" d=" M 352.21 407.68 C 353.00 407.01 353.91 406.72 354.94 406.81 C 354.52 408.54 353.61 408.83 352.21 407.68 Z" />
<path fill="#79787e" opacity="0.50" d=" M 339.98 410.57 C 340.82 409.98 341.75 409.78 342.77 409.97 C 342.20 411.65 341.27 411.85 339.98 410.57 Z" />
<path fill="#79787e" opacity="0.50" d=" M 335.04 411.60 C 335.88 411.00 336.82 410.78 337.84 410.94 C 337.30 412.64 336.36 412.86 335.04 411.60 Z" />
<path fill="#79787e" opacity="0.50" d=" M 63.44 412.58 C 64.76 411.99 65.74 412.41 66.38 413.84 C 65.08 414.14 64.09 413.71 63.44 412.58 Z" />
<path fill="#79787e" opacity="0.50" d=" M 330.09 412.57 C 330.94 411.98 331.87 411.77 332.89 411.94 C 332.34 413.63 331.40 413.84 330.09 412.57 Z" />
<path fill="#79787e" opacity="0.50" d=" M 324.05 413.57 C 324.90 412.99 325.83 412.79 326.85 412.98 C 326.27 414.66 325.34 414.86 324.05 413.57 Z" />
<path fill="#79787e" opacity="0.50" d=" M 318.04 414.49 C 318.91 413.94 319.84 413.77 320.85 413.97 C 320.23 415.65 319.30 415.82 318.04 414.49 Z" />
<path fill="#79787e" opacity="0.50" d=" M 310.29 415.45 C 311.66 415.13 313.07 414.96 314.49 414.97 C 314.58 417.07 310.94 417.22 310.29 415.45 Z" />
<path fill="#79787e" opacity="0.50" d=" M 303.44 416.39 C 304.80 416.07 306.19 415.87 307.60 415.82 C 307.79 417.94 304.12 418.19 303.44 416.39 Z" />
<path fill="#79787e" opacity="0.50" d=" M 429.45 417.48 C 430.00 416.21 430.98 415.85 432.40 416.40 C 431.64 417.62 430.66 417.98 429.45 417.48 Z" />
<path fill="#79787e" opacity="0.50" d=" M 70.51 417.12 C 71.96 416.79 72.92 417.32 73.41 418.69 C 72.06 418.90 71.10 418.37 70.51 417.12 Z" />
<path fill="#79787e" opacity="0.50" d=" M 294.39 417.48 C 295.72 417.09 297.10 416.87 298.49 416.91 C 298.68 419.00 295.05 419.24 294.39 417.48 Z" />
<path fill="#79787e" opacity="0.50" d=" M 280.66 418.81 C 283.52 418.68 286.34 418.49 289.22 418.35 C 286.37 418.59 283.52 418.73 280.66 418.81 Z" />
<path fill="#79787e" opacity="0.50" d=" M 73.67 419.23 C 75.11 419.28 75.94 420.02 76.16 421.44 C 74.76 421.36 73.93 420.62 73.67 419.23 Z" />
<path fill="#79787e" opacity="0.50" d=" M 214.89 420.54 C 215.28 419.45 216.03 418.95 217.14 419.05 C 217.16 420.70 216.40 421.19 214.89 420.54 Z" />
<path fill="#79787e" opacity="0.50" d=" M 219.54 419.04 C 221.43 419.01 223.32 419.14 225.21 419.43 C 224.23 421.38 219.96 421.36 219.54 419.04 Z" />
<path fill="#79787e" opacity="0.50" d=" M 266.66 419.27 C 268.53 419.08 270.42 418.99 272.33 418.99 C 272.07 421.41 267.68 421.17 266.66 419.27 Z" />
<path fill="#79787e" opacity="0.50" d=" M 425.82 420.99 C 426.36 419.58 427.30 419.08 428.63 419.51 C 428.15 420.75 427.22 421.24 425.82 420.99 Z" />
<path fill="#79787e" opacity="0.50" d=" M 241.73 420.50 C 244.57 420.50 247.43 420.47 250.29 420.41 C 247.44 420.63 244.58 420.66 241.73 420.50 Z" />
<path fill="#79787e" opacity="0.50" d=" M 78.71 421.91 C 80.75 421.95 82.33 423.32 83.33 425.01 C 81.41 424.75 79.14 424.10 78.71 421.91 Z" />
<path fill="#79787e" opacity="0.50" d=" M 210.11 426.56 C 211.11 425.28 212.21 424.10 213.31 422.91 C 215.00 424.73 212.10 428.00 210.11 426.56 Z" />
<path fill="#79787e" opacity="0.50" d=" M 91.71 429.08 C 93.07 429.28 94.92 429.91 94.82 431.61 C 93.22 431.83 92.18 430.40 91.71 429.08 Z" />
<path fill="#79787e" opacity="0.50" d=" M 204.14 433.57 C 204.97 432.15 205.99 430.85 207.20 429.74 C 208.75 431.45 206.13 434.79 204.14 433.57 Z" />
<path fill="#79787e" opacity="0.50" d=" M 98.78 431.82 C 100.34 431.61 101.38 433.00 101.95 434.26 C 100.56 434.17 98.64 433.56 98.78 431.82 Z" />
<path fill="#79787e" opacity="0.50" d=" M 398.86 434.23 C 400.02 432.76 401.86 432.12 403.70 432.43 C 402.59 433.97 400.70 434.61 398.86 434.23 Z" />
<path fill="#79787e" opacity="0.50" d=" M 199.04 440.25 C 200.67 438.28 202.26 436.27 203.74 434.19 C 203.05 436.81 201.22 438.77 199.04 440.25 Z" />
<path fill="#79787e" opacity="0.50" d=" M 374.71 442.06 C 376.11 440.41 378.20 439.68 380.33 440.13 C 378.85 441.65 376.81 442.36 374.71 442.06 Z" />
<path fill="#79787e" opacity="0.50" d=" M 121.59 440.61 C 122.47 460.82 121.85 481.06 121.69 501.29 C 120.15 481.11 120.98 460.81 121.59 440.61 Z" />
<path fill="#79787e" opacity="0.50" d=" M 192.93 446.67 C 193.47 445.47 194.33 444.45 195.42 443.71 C 196.80 445.10 194.53 447.84 192.93 446.67 Z" />
<path fill="#79787e" opacity="0.50" d=" M 358.91 446.08 C 359.71 444.89 360.80 444.54 362.16 445.03 C 361.34 446.20 360.26 446.55 358.91 446.08 Z" />
<path fill="#79787e" opacity="0.50" d=" M 344.81 448.86 C 346.58 447.12 349.07 446.54 351.33 447.70 C 349.31 448.75 347.06 449.16 344.81 448.86 Z" />
<path fill="#79787e" opacity="0.50" d=" M 186.00 455.25 C 187.62 453.38 189.31 451.58 190.92 449.71 C 189.54 451.77 187.81 453.56 186.00 455.25 Z" />
<path fill="#79787e" opacity="0.50" d=" M 329.95 451.49 C 332.37 451.11 334.80 450.70 337.23 450.30 C 334.81 450.76 332.38 451.17 329.95 451.49 Z" />
<path fill="#79787e" opacity="0.50" d=" M 311.79 453.77 C 315.60 453.27 319.41 452.80 323.23 452.36 C 319.42 452.86 315.60 453.31 311.79 453.77 Z" />
<path fill="#79787e" opacity="0.50" d=" M 207.25 455.18 C 209.49 455.38 211.73 455.58 213.98 455.81 C 210.38 456.44 206.81 457.57 204.00 459.98 C 205.12 458.40 206.18 456.78 207.25 455.18 Z" />
<path fill="#79787e" opacity="0.50" d=" M 288.86 455.86 C 292.00 455.65 295.10 455.43 298.26 455.25 C 295.14 455.52 291.97 455.63 288.86 455.86 Z" />
<path fill="#79787e" opacity="0.50" d=" M 214.85 455.87 C 217.92 456.12 220.97 456.35 224.07 456.63 C 220.99 456.45 217.90 456.10 214.85 455.87 Z" />
<path fill="#79787e" opacity="0.50" d=" M 277.97 456.45 C 281.33 456.28 284.67 456.06 288.05 455.91 C 284.69 456.10 281.32 456.28 277.97 456.45 Z" />
<path fill="#79787e" opacity="0.50" d=" M 181.24 460.71 C 182.18 459.39 183.23 458.15 184.38 457.01 C 186.01 458.78 183.24 462.09 181.24 460.71 Z" />
<path fill="#79787e" opacity="0.50" d=" M 198.12 467.14 C 199.95 464.97 201.73 462.77 203.52 460.58 C 201.77 462.80 199.97 464.99 198.12 467.14 Z" />
<path fill="#79787e" opacity="0.50" d=" M 172.98 470.06 C 174.79 467.77 176.82 465.68 178.84 463.60 C 177.22 466.03 175.19 468.15 172.98 470.06 Z" />
<path fill="#79787e" opacity="0.50" d=" M 168.07 476.16 C 169.55 474.30 171.03 472.44 172.54 470.60 C 172.38 471.72 172.22 472.85 172.05 473.98 C 170.72 474.70 169.40 475.43 168.07 476.16 Z" />
<path fill="#79787e" opacity="0.50" d=" M 189.78 476.34 C 189.95 474.44 191.30 472.93 193.17 472.58 C 192.74 474.34 191.49 475.73 189.78 476.34 Z" />
<path fill="#79787e" opacity="0.50" d=" M 160.01 485.15 C 161.62 483.30 163.32 481.54 165.00 479.76 C 163.56 481.75 161.83 483.50 160.01 485.15 Z" />
<path fill="#79787e" opacity="0.50" d=" M 175.82 492.01 C 178.78 487.91 182.41 484.39 185.97 480.82 C 182.78 484.73 179.22 488.30 175.82 492.01 Z" />
<path fill="#79787e" opacity="0.50" d=" M 144.57 500.67 C 148.23 496.96 151.93 493.28 155.73 489.70 C 152.48 493.80 148.82 497.60 144.57 500.67 Z" />
<path fill="#79787e" opacity="0.50" d=" M 170.26 498.31 C 171.82 496.56 173.38 494.80 174.94 493.04 C 173.44 494.85 171.88 496.61 170.26 498.31 Z" />
<path fill="#79787e" opacity="0.50" d=" M 134.33 499.56 C 136.84 500.77 139.35 501.97 141.86 503.20 L 142.60 503.56 C 138.88 504.03 136.11 502.38 134.33 499.56 Z" />
<path fill="#79787e" opacity="0.50" d=" M 158.75 509.82 C 160.51 508.20 162.24 506.56 163.97 504.92 C 162.30 506.62 160.57 508.26 158.75 509.82 Z" />
<path fill="#79787e" opacity="0.50" d=" M 124.72 510.13 C 126.34 512.21 128.10 514.19 129.98 516.05 C 127.77 514.53 126.00 512.47 124.72 510.13 Z" />
<path fill="#79787e" opacity="0.50" d=" M 145.07 519.00 C 144.89 517.24 147.00 516.92 148.30 517.13 C 147.90 517.59 147.11 518.53 146.71 519.00 L 145.07 519.00 Z" />
</g>
<g id="#fefefefe">
<path fill="#fefefe" opacity="1.00" d=" M 234.49 0.00 L 250.50 0.00 C 258.88 0.34 267.31 0.92 275.69 0.13 L 276.73 0.26 C 281.87 0.93 287.03 1.61 292.20 2.00 C 297.35 2.41 302.50 2.79 307.65 3.17 C 309.33 3.32 312.70 3.61 314.38 3.76 L 314.95 4.10 C 316.38 5.41 318.39 5.57 320.15 4.86 C 323.46 5.27 326.74 5.68 330.07 6.07 C 331.13 7.03 332.66 7.87 334.10 7.14 L 335.11 6.82 C 335.51 8.06 336.37 8.54 337.71 8.26 C 339.17 8.13 340.63 8.02 342.09 7.91 C 343.10 8.93 344.59 9.88 346.06 9.18 L 347.10 8.88 C 347.55 10.18 348.44 10.62 349.78 10.21 C 350.34 10.08 351.48 9.82 352.04 9.69 C 352.52 11.00 353.49 11.46 354.96 11.04 L 355.79 10.96 C 356.60 12.15 357.69 12.49 359.07 11.98 C 361.64 12.71 364.21 13.44 366.79 14.15 C 367.63 15.29 368.72 15.61 370.06 15.11 C 373.28 16.13 376.52 17.09 379.76 18.03 C 381.31 19.46 383.34 20.12 385.43 19.88 C 386.54 20.23 387.64 20.59 388.75 20.94 C 389.97 22.33 391.78 22.96 393.61 22.74 C 394.59 23.16 395.58 23.59 396.57 24.01 C 397.56 25.61 399.34 26.44 401.21 26.21 C 402.70 26.78 404.20 27.35 405.70 27.92 C 406.74 29.44 408.47 30.26 410.31 30.16 C 411.85 30.73 413.39 31.31 414.93 31.89 C 414.83 33.26 415.42 34.12 416.69 34.46 C 419.02 35.25 421.30 36.15 423.59 37.06 C 424.62 38.69 426.26 40.23 428.37 39.78 L 429.01 39.75 C 429.09 41.11 429.88 41.79 431.38 41.80 L 431.93 42.20 C 434.00 43.76 436.10 45.28 438.18 46.83 L 438.75 47.29 C 444.78 53.96 451.00 60.52 458.06 66.14 C 458.37 66.54 458.98 67.35 459.28 67.76 C 460.48 69.55 461.61 71.39 462.75 73.22 L 463.06 73.73 C 463.25 75.39 464.08 77.43 466.08 77.34 C 466.22 78.28 466.37 79.21 466.52 80.15 C 466.66 81.46 467.44 82.17 468.85 82.29 L 469.46 82.51 C 468.74 83.98 470.04 85.32 471.15 86.10 C 471.40 86.99 471.65 87.88 471.91 88.77 C 472.22 90.93 473.64 92.62 475.28 93.97 L 475.52 94.53 C 476.59 97.11 477.67 99.69 478.78 102.26 C 479.23 103.35 479.68 104.45 480.13 105.54 C 479.83 107.38 480.55 109.18 482.03 110.32 C 482.63 112.20 483.24 114.09 483.85 115.97 C 483.49 117.98 483.81 120.51 486.12 121.16 C 486.38 122.73 486.71 124.29 487.08 125.84 C 487.62 128.30 488.24 130.74 488.91 133.17 C 489.30 134.73 489.73 136.28 490.14 137.84 C 490.75 140.32 491.36 142.80 491.98 145.27 L 492.17 146.06 C 491.74 147.42 491.52 149.47 493.18 150.11 L 492.87 151.12 C 492.40 152.49 492.86 153.37 494.26 153.75 C 494.13 154.57 493.87 156.21 493.74 157.03 C 493.15 158.79 493.92 160.53 495.00 161.92 L 495.09 162.66 C 495.37 165.50 495.70 168.36 496.08 171.20 C 496.41 173.71 496.86 176.20 497.20 178.71 C 497.44 189.53 497.75 200.39 499.29 211.12 C 499.51 212.42 499.74 213.72 500.00 215.02 L 500.00 237.52 C 499.34 247.10 498.66 256.67 498.35 266.27 C 497.90 271.47 497.36 276.66 496.76 281.85 C 494.98 284.45 494.77 286.91 496.14 289.23 L 496.02 289.86 C 494.74 291.32 494.45 293.31 495.10 295.12 C 495.03 297.05 494.96 298.99 494.90 300.93 C 493.76 302.44 493.46 304.37 494.02 306.18 L 493.57 306.83 C 492.41 307.98 492.76 309.69 493.37 311.02 C 492.90 313.63 492.41 316.24 491.93 318.84 C 490.81 319.75 490.55 320.86 491.15 322.18 C 490.47 325.10 489.77 328.01 489.10 330.94 C 487.90 331.73 487.53 332.81 488.02 334.18 C 487.66 335.34 487.30 336.51 486.95 337.68 C 485.36 339.16 484.70 341.28 485.26 343.39 C 482.53 351.88 478.47 359.85 475.54 368.26 C 474.12 368.06 473.30 368.72 473.07 370.27 C 471.19 373.88 469.00 377.32 466.78 380.74 C 465.53 382.54 464.31 384.35 463.07 386.15 C 461.17 388.84 459.11 391.42 456.84 393.81 C 451.60 398.60 446.55 403.59 441.65 408.72 C 438.62 411.35 435.53 413.90 432.40 416.40 C 430.98 415.85 430.00 416.21 429.45 417.48 C 429.25 417.99 428.83 419.00 428.63 419.51 C 427.30 419.08 426.36 419.58 425.82 420.99 C 418.57 425.03 411.25 428.98 403.70 432.43 C 401.86 432.12 400.02 432.76 398.86 434.23 C 392.74 436.37 386.56 438.35 380.33 440.13 C 378.20 439.68 376.11 440.41 374.71 442.06 C 370.53 443.07 366.33 444.03 362.16 445.03 C 360.80 444.54 359.71 444.89 358.91 446.08 C 356.38 446.62 353.85 447.16 351.33 447.70 C 349.07 446.54 346.58 447.12 344.81 448.86 C 342.28 449.34 339.76 449.84 337.23 450.30 C 334.80 450.70 332.37 451.11 329.95 451.49 C 327.70 451.78 325.46 452.07 323.23 452.36 C 319.41 452.80 315.60 453.27 311.79 453.77 C 307.28 454.30 302.78 454.86 298.26 455.25 C 295.10 455.43 292.00 455.65 288.86 455.86 L 288.05 455.91 C 284.67 456.06 281.33 456.28 277.97 456.45 C 260.01 457.19 242.02 457.38 224.07 456.63 C 220.97 456.35 217.92 456.12 214.85 455.87 L 213.98 455.81 C 211.73 455.58 209.49 455.38 207.25 455.18 C 206.18 456.78 205.12 458.40 204.00 459.98 L 203.52 460.58 C 201.73 462.77 199.95 464.97 198.12 467.14 C 196.50 468.97 194.83 470.77 193.17 472.58 C 191.30 472.93 189.95 474.44 189.78 476.34 C 188.52 477.84 187.26 479.34 185.97 480.82 C 182.41 484.39 178.78 487.91 175.82 492.01 C 175.60 492.27 175.16 492.79 174.94 493.04 C 173.38 494.80 171.82 496.56 170.26 498.31 C 168.18 500.53 166.11 502.76 163.97 504.92 C 162.24 506.56 160.51 508.20 158.75 509.82 C 155.53 512.61 152.12 515.21 148.30 517.13 C 147.00 516.92 144.89 517.24 145.07 519.00 L 135.36 519.00 C 133.49 518.16 131.64 517.25 129.98 516.05 C 128.10 514.19 126.34 512.21 124.72 510.13 C 123.12 507.43 122.08 504.40 121.69 501.29 C 121.85 481.06 122.47 460.82 121.59 440.61 C 115.04 438.51 108.49 436.38 101.95 434.26 C 101.38 433.00 100.34 431.61 98.78 431.82 C 97.46 431.75 96.14 431.67 94.82 431.61 C 94.92 429.91 93.07 429.28 91.71 429.08 C 88.91 427.73 86.12 426.38 83.33 425.01 C 82.33 423.32 80.75 421.95 78.71 421.91 C 77.86 421.75 77.01 421.60 76.16 421.44 C 75.94 420.02 75.11 419.28 73.67 419.23 L 73.41 418.69 C 72.92 417.32 71.96 416.79 70.51 417.12 C 69.12 416.04 67.75 414.95 66.38 413.84 C 65.74 412.41 64.76 411.99 63.44 412.58 L 62.99 411.99 C 61.46 409.91 59.71 407.99 57.72 406.33 L 57.17 405.85 C 55.39 404.27 53.57 402.75 51.79 401.18 C 50.42 399.91 49.11 398.59 47.83 397.25 C 45.96 395.17 44.08 393.10 42.21 391.03 L 41.86 390.61 C 41.81 388.69 40.48 387.16 38.64 386.72 C 37.46 384.75 36.28 382.77 35.20 380.75 C 34.74 379.50 33.90 379.05 32.68 379.38 C 32.48 378.19 32.28 377.00 32.10 375.81 C 31.95 374.40 31.19 373.83 29.81 374.09 C 29.63 373.00 29.45 371.90 29.28 370.81 C 29.20 369.44 28.49 368.79 27.17 368.84 L 27.19 367.87 C 27.46 366.48 26.59 364.90 25.09 364.78 L 25.11 363.92 C 25.42 362.49 24.17 361.10 22.74 361.16 C 22.63 360.00 22.53 358.84 22.44 357.69 C 22.60 356.23 21.30 354.84 19.81 355.10 C 18.94 352.15 18.02 349.21 17.14 346.26 C 17.38 344.37 16.46 342.58 14.75 341.73 C 12.95 335.92 11.24 330.08 9.70 324.20 C 10.33 322.87 10.08 321.76 8.93 320.87 L 9.09 320.11 C 9.56 318.75 9.18 317.68 7.95 316.92 C 7.58 315.01 7.20 313.09 6.84 311.18 C 7.45 309.86 7.20 308.75 6.09 307.83 C 5.66 305.29 5.21 302.76 4.83 300.21 C 4.30 296.39 3.78 292.59 3.26 288.79 C 2.69 284.28 2.31 279.76 1.78 275.26 C 1.37 271.67 0.97 268.11 0.23 264.58 L 0.04 263.49 C 0.16 257.47 0.15 251.46 0.00 245.46 L 0.00 225.50 C 0.30 216.78 0.33 208.05 0.02 199.34 C 0.14 198.53 0.39 196.92 0.52 196.11 C 1.07 192.68 1.61 189.27 1.98 185.82 C 2.52 181.01 2.83 176.18 3.21 171.36 C 3.33 169.68 3.56 166.32 3.68 164.64 L 4.09 164.08 C 5.34 162.99 5.52 161.26 4.84 159.81 C 5.25 156.92 5.69 154.05 6.12 151.17 C 7.29 150.01 7.55 148.33 6.91 146.84 C 7.31 144.62 7.70 142.40 8.06 140.18 C 9.24 139.39 9.62 138.31 9.18 136.95 C 9.50 135.37 9.82 133.79 10.13 132.21 C 11.26 131.34 11.56 130.24 11.02 128.91 C 13.27 121.69 15.60 114.50 17.93 107.30 C 19.43 106.24 20.25 104.50 20.11 102.67 C 21.08 100.52 22.05 98.37 23.00 96.22 C 24.39 95.23 25.61 93.69 25.15 91.88 L 25.09 91.09 C 26.77 90.32 27.67 88.65 28.06 86.92 C 28.35 86.00 28.65 85.09 28.95 84.18 C 30.42 84.11 31.18 83.40 31.22 82.04 L 31.25 81.29 C 33.06 80.56 34.00 78.62 33.73 76.72 L 33.73 76.01 C 35.11 75.96 35.81 75.20 35.83 73.72 L 35.97 73.03 C 37.64 72.93 39.01 71.55 38.96 69.85 L 39.07 69.06 C 40.71 68.98 42.04 67.74 42.30 66.14 C 42.69 64.98 43.07 63.82 43.44 62.66 C 44.78 62.97 45.67 62.41 46.11 60.97 C 49.15 57.51 52.33 54.19 55.49 50.84 C 56.90 50.93 57.83 50.30 58.27 48.94 C 59.01 48.29 59.76 47.64 60.50 46.99 C 61.92 47.05 62.82 46.39 63.19 45.04 L 63.87 44.98 C 65.34 44.99 66.15 44.25 66.30 42.76 C 68.58 41.58 70.85 40.39 73.22 39.40 C 74.43 39.04 75.07 38.22 75.12 36.94 C 76.19 36.73 77.26 36.53 78.34 36.34 C 79.78 36.15 80.32 35.35 79.94 33.95 C 96.90 26.40 113.77 18.43 131.92 14.06 C 133.26 14.56 134.35 14.24 135.20 13.09 C 136.75 12.73 138.31 12.35 139.87 11.99 C 141.20 12.52 142.30 12.21 143.17 11.07 C 146.41 10.40 149.66 9.73 152.91 9.07 C 154.25 9.58 155.34 9.27 156.19 8.13 C 158.75 7.76 161.30 7.36 163.84 6.94 C 165.33 7.58 167.01 7.32 168.18 6.16 C 171.41 5.73 174.64 5.26 177.87 4.82 C 179.35 5.50 181.05 5.27 182.24 4.13 C 182.63 4.05 183.41 3.91 183.80 3.84 C 185.58 4.55 187.59 4.35 189.12 3.16 C 193.99 2.72 198.86 2.29 203.73 1.82 C 207.24 1.46 210.79 1.18 214.27 0.50 C 214.79 0.41 215.84 0.23 216.37 0.13 C 222.40 0.40 228.44 0.15 234.49 0.00 M 218.46 36.86 L 219.12 36.86 C 216.84 36.96 214.57 37.20 212.31 37.51 C 211.65 35.47 207.49 35.72 207.59 38.03 C 205.58 38.20 201.57 38.54 199.57 38.71 C 199.01 36.84 195.29 36.93 195.45 39.09 C 194.54 39.21 192.72 39.45 191.82 39.57 C 191.35 37.87 188.14 38.14 188.33 40.02 C 186.78 40.01 185.27 40.18 183.77 40.55 C 183.30 38.86 180.08 39.14 180.29 41.03 C 179.45 41.14 177.76 41.35 176.92 41.46 C 175.61 40.17 174.68 40.37 174.11 42.07 C 173.58 42.15 172.53 42.33 172.00 42.41 C 170.70 41.12 169.76 41.32 169.20 43.01 C 168.39 43.11 166.78 43.32 165.98 43.42 C 164.60 42.21 163.69 42.47 163.24 44.20 C 159.73 44.39 156.26 45.24 153.03 46.60 C 151.66 45.35 150.74 45.61 150.29 47.36 C 138.15 49.57 126.66 54.51 115.23 59.06 C 113.07 59.94 110.95 60.91 108.90 62.02 L 108.37 62.55 C 106.71 61.86 105.95 62.40 106.09 64.16 C 103.65 64.88 101.27 65.93 99.23 67.47 C 97.58 66.63 96.79 67.13 96.84 68.95 L 96.15 69.23 C 94.46 68.54 93.70 69.09 93.88 70.90 L 93.20 71.21 C 91.48 70.57 90.75 71.16 91.01 72.96 C 90.59 73.32 89.76 74.03 89.35 74.38 C 87.65 73.77 86.92 74.35 87.15 76.12 C 86.72 76.38 85.86 76.90 85.44 77.16 C 80.89 79.97 76.67 83.68 74.09 88.42 C 73.79 88.86 73.18 89.72 72.87 90.16 C 71.21 88.90 68.91 91.79 70.45 93.18 C 70.10 93.65 69.39 94.59 69.03 95.06 C 67.23 94.73 66.62 95.44 67.19 97.19 L 66.89 97.87 C 65.08 97.71 64.53 98.47 65.24 100.16 L 64.95 100.83 C 63.13 100.79 62.64 101.59 63.48 103.23 C 62.85 104.17 62.30 105.17 61.85 106.21 C 59.76 105.19 58.03 108.84 59.75 110.14 C 58.28 112.41 57.02 114.85 56.21 117.44 C 54.26 116.64 52.91 120.07 54.65 121.06 C 50.67 129.01 47.85 137.63 46.16 146.34 C 44.43 146.77 44.15 147.68 45.33 149.09 L 45.15 150.05 C 43.45 150.61 43.24 151.55 44.53 152.86 C 43.59 155.19 43.01 157.72 43.07 160.25 C 41.38 160.83 41.18 161.77 42.48 163.06 C 42.39 163.66 42.20 164.87 42.10 165.48 C 39.97 165.35 39.76 168.99 41.55 169.69 C 41.46 170.37 41.28 171.72 41.19 172.40 C 39.05 172.23 38.86 175.91 40.67 176.56 C 40.40 178.22 40.19 179.88 40.04 181.56 C 37.74 181.46 37.44 185.62 39.47 186.31 C 39.19 188.14 38.92 189.98 38.74 191.82 C 38.41 194.64 38.26 197.47 38.10 200.30 C 37.72 207.10 37.80 213.92 37.70 220.73 C 36.38 233.77 36.95 246.92 37.03 260.01 L 37.96 259.99 C 38.04 264.47 38.20 268.95 38.67 273.42 C 36.82 273.98 36.90 277.69 39.06 277.53 C 39.11 279.16 39.28 280.79 39.57 282.41 C 37.76 283.03 37.95 286.71 40.08 286.53 C 40.21 287.45 40.46 289.28 40.58 290.20 C 38.88 290.65 39.14 293.87 41.03 293.70 C 41.13 294.54 41.35 296.24 41.46 297.09 C 40.17 298.38 40.37 299.32 42.07 299.89 C 42.15 300.43 42.32 301.51 42.40 302.05 C 41.14 303.37 41.36 304.31 43.06 304.85 C 43.15 305.41 43.32 306.54 43.41 307.10 C 42.18 308.45 42.42 309.38 44.14 309.90 L 44.36 310.89 C 43.13 312.25 43.37 313.17 45.08 313.68 C 45.29 319.74 48.10 325.31 49.95 330.98 C 51.91 335.72 53.53 340.74 56.69 344.85 C 55.05 346.23 57.02 349.69 59.01 348.63 C 59.54 349.75 60.13 350.85 60.78 351.92 C 59.08 353.30 60.93 356.88 63.04 355.88 L 63.53 356.67 C 62.02 358.13 64.35 361.00 66.07 359.78 L 66.65 360.49 C 65.88 362.14 66.40 362.95 68.20 362.92 L 68.64 363.77 C 67.03 365.57 69.71 368.92 71.78 367.64 C 72.53 368.64 73.31 369.64 74.18 370.56 C 76.10 374.03 78.81 377.12 82.40 378.92 C 83.31 379.77 84.31 380.51 85.32 381.25 C 84.05 383.32 87.45 385.95 89.23 384.30 L 90.00 384.73 C 89.76 386.50 90.49 387.10 92.20 386.53 C 93.10 387.82 94.48 388.75 96.04 389.04 C 96.01 390.81 96.81 391.30 98.43 390.52 L 98.98 390.94 C 98.68 392.74 99.40 393.34 101.14 392.73 C 103.08 394.49 105.62 395.38 108.11 396.04 C 107.33 397.69 110.20 399.05 111.12 397.55 C 117.92 402.09 126.07 404.90 134.12 406.02 C 134.49 406.55 135.21 407.61 135.58 408.14 C 135.12 409.70 134.99 411.33 134.94 412.96 C 134.59 441.82 135.80 470.71 134.33 499.56 C 136.11 502.38 138.88 504.03 142.60 503.56 L 141.86 503.20 C 142.78 502.36 143.68 501.52 144.57 500.67 C 148.82 497.60 152.48 493.80 155.73 489.70 C 157.22 488.25 158.63 486.71 160.01 485.15 C 161.83 483.50 163.56 481.75 165.00 479.76 C 166.07 478.60 167.07 477.38 168.07 476.16 C 169.40 475.43 170.72 474.70 172.05 473.98 C 172.22 472.85 172.38 471.72 172.54 470.60 L 172.98 470.06 C 175.19 468.15 177.22 466.03 178.84 463.60 C 179.70 462.68 180.49 461.70 181.24 460.71 C 183.24 462.09 186.01 458.78 184.38 457.01 C 184.79 456.57 185.60 455.69 186.00 455.25 C 187.81 453.56 189.54 451.77 190.92 449.71 C 191.68 448.76 192.33 447.72 192.93 446.67 C 194.53 447.84 196.80 445.10 195.42 443.71 C 196.71 442.65 197.95 441.52 199.04 440.25 C 201.22 438.77 203.05 436.81 203.74 434.19 L 204.14 433.57 C 206.13 434.79 208.75 431.45 207.20 429.74 C 208.22 428.72 209.20 427.66 210.11 426.56 C 212.10 428.00 215.00 424.73 213.31 422.91 C 213.71 422.32 214.49 421.13 214.89 420.54 C 216.40 421.19 217.16 420.70 217.14 419.05 C 217.74 419.05 218.94 419.04 219.54 419.04 C 219.96 421.36 224.23 421.38 225.21 419.43 C 230.70 420.03 236.21 420.28 241.73 420.50 C 244.58 420.66 247.44 420.63 250.29 420.41 C 255.76 420.19 261.19 419.66 266.66 419.27 C 267.68 421.17 272.07 421.41 272.33 418.99 C 275.10 418.94 277.88 418.88 280.66 418.81 C 283.52 418.73 286.37 418.59 289.22 418.35 C 290.96 418.18 292.69 417.87 294.39 417.48 C 295.05 419.24 298.68 419.00 298.49 416.91 C 300.15 416.85 301.80 416.68 303.44 416.39 C 304.12 418.19 307.79 417.94 307.60 415.82 C 308.27 415.72 309.62 415.54 310.29 415.45 C 310.94 417.22 314.58 417.07 314.49 414.97 C 315.37 414.85 317.15 414.61 318.04 414.49 C 319.30 415.82 320.23 415.65 320.85 413.97 C 321.65 413.87 323.25 413.67 324.05 413.57 C 325.34 414.86 326.27 414.66 326.85 412.98 C 327.66 412.88 329.28 412.68 330.09 412.57 C 331.40 413.84 332.34 413.63 332.89 411.94 C 333.43 411.85 334.50 411.68 335.04 411.60 C 336.36 412.86 337.30 412.64 337.84 410.94 C 338.38 410.85 339.44 410.66 339.98 410.57 C 341.27 411.85 342.20 411.65 342.77 409.97 C 346.04 410.10 349.40 409.36 352.21 407.68 C 353.61 408.83 354.52 408.54 354.94 406.81 L 355.91 406.62 C 357.24 407.87 358.17 407.65 358.71 405.96 C 364.27 405.33 370.09 404.36 375.09 401.67 C 376.45 402.86 377.36 402.59 377.81 400.88 C 384.63 399.88 391.07 396.34 396.80 392.67 C 398.45 393.45 399.23 392.94 399.14 391.14 C 401.26 390.46 403.20 389.19 404.67 387.51 C 406.30 388.24 407.08 387.72 407.01 385.96 L 407.75 385.72 C 409.46 386.35 410.19 385.77 409.94 383.97 C 410.37 383.69 411.22 383.13 411.65 382.85 C 418.12 379.80 423.75 374.89 426.72 368.26 L 427.19 367.67 C 429.16 368.94 432.00 365.68 430.40 363.89 C 430.78 363.39 431.53 362.40 431.91 361.90 C 433.69 362.29 434.33 361.60 433.83 359.85 L 434.10 359.17 C 435.90 359.27 436.42 358.49 435.65 356.83 C 437.26 355.12 438.30 352.98 439.22 350.84 C 441.28 351.82 442.99 348.22 441.33 346.92 C 447.47 336.46 452.47 324.78 453.97 312.69 C 455.66 312.15 455.88 311.22 454.63 309.89 L 454.86 308.90 C 456.57 308.39 456.82 307.45 455.59 306.10 C 455.68 305.55 455.85 304.45 455.93 303.90 C 457.62 303.32 457.83 302.39 456.55 301.09 C 456.65 300.23 456.86 298.51 456.97 297.65 C 458.85 297.78 459.06 294.58 457.39 294.11 C 457.50 293.47 457.73 292.18 457.84 291.53 C 460.12 291.54 460.45 287.44 458.43 286.70 C 458.55 285.64 458.77 283.52 458.88 282.46 C 461.19 282.51 461.41 278.35 459.37 277.71 C 459.56 275.94 459.74 274.18 459.90 272.41 C 462.20 272.53 462.52 268.38 460.50 267.68 C 460.78 265.85 461.06 264.02 461.25 262.17 C 461.59 259.36 461.75 256.53 461.96 253.70 C 462.20 249.56 462.25 245.40 462.32 241.27 C 463.49 229.90 463.11 218.43 462.99 207.03 L 461.95 207.00 C 461.83 202.75 461.64 198.51 461.35 194.28 C 463.43 193.71 463.33 189.52 461.02 189.55 C 460.89 187.55 460.72 185.55 460.38 183.59 C 462.20 182.97 462.03 179.29 459.91 179.47 C 459.78 178.55 459.54 176.73 459.42 175.82 C 461.11 175.36 460.86 172.15 458.98 172.33 C 459.01 170.74 458.83 169.18 458.44 167.65 C 460.10 167.06 459.64 163.87 457.77 164.11 L 457.54 162.97 C 459.16 162.37 458.80 159.20 456.93 159.39 C 456.84 158.77 456.65 157.54 456.55 156.93 C 457.80 155.60 457.57 154.66 455.87 154.11 L 455.64 153.11 C 456.84 151.72 456.57 150.80 454.85 150.35 C 454.68 147.13 453.88 143.92 452.48 141.02 C 453.68 139.62 453.40 138.71 451.64 138.30 C 448.88 125.91 443.47 114.11 437.21 103.10 C 438.94 101.73 437.05 98.14 434.96 99.21 L 434.49 98.49 C 435.19 96.81 434.64 96.04 432.85 96.16 L 432.50 95.38 C 433.16 93.70 432.60 92.94 430.81 93.09 L 430.45 92.35 C 432.05 90.98 429.80 87.99 428.08 89.24 C 427.76 88.82 427.11 87.97 426.79 87.54 C 424.27 82.75 419.93 79.30 415.63 76.18 C 415.18 75.86 414.27 75.23 413.82 74.92 C 415.06 73.21 412.09 70.97 410.75 72.58 C 409.04 71.11 407.15 69.80 405.04 69.01 C 405.14 67.18 404.36 66.67 402.70 67.47 C 384.27 57.59 364.17 50.31 343.66 46.18 C 343.23 44.45 342.31 44.17 340.91 45.35 L 339.96 45.15 C 339.36 43.45 338.42 43.26 337.14 44.57 C 334.47 43.61 331.63 43.07 328.80 43.10 C 328.27 41.40 327.34 41.18 326.03 42.44 C 325.23 42.34 323.65 42.13 322.85 42.02 C 322.24 40.34 321.30 40.17 320.04 41.50 C 319.16 41.39 317.40 41.17 316.51 41.06 C 316.64 38.93 312.97 38.81 312.37 40.62 C 311.39 40.49 309.43 40.23 308.46 40.10 C 308.49 37.80 304.35 37.56 303.67 39.59 C 302.62 39.47 300.51 39.25 299.45 39.13 C 299.53 36.83 295.38 36.55 294.70 38.58 C 291.87 38.22 289.04 37.91 286.21 37.67 C 283.38 37.40 280.54 37.21 277.70 37.04 C 274.57 36.79 271.41 36.71 268.28 36.67 C 251.72 35.23 235.03 35.70 218.46 36.86 Z" />
<path fill="#fefefe" opacity="1.00" d=" M 240.31 103.10 C 241.63 102.34 242.94 101.55 244.34 100.95 C 247.63 100.68 250.91 100.66 254.22 100.65 C 255.99 100.88 259.53 101.33 261.30 101.55 C 262.42 101.94 263.58 102.18 264.78 102.15 C 265.37 102.24 266.55 102.43 267.13 102.52 C 268.26 102.90 269.45 103.09 270.65 103.01 C 271.49 103.11 273.16 103.32 274.00 103.42 C 274.78 104.06 275.69 104.36 276.71 104.29 C 283.70 105.49 290.61 107.61 297.05 110.62 C 298.19 111.25 299.40 111.76 300.66 112.11 C 304.49 113.54 308.40 115.05 311.75 117.43 C 312.32 118.24 313.09 118.78 314.07 119.02 L 314.58 119.47 C 315.09 120.37 315.85 120.91 316.85 121.12 C 319.47 122.00 321.80 123.58 323.81 125.46 C 324.69 126.39 325.69 127.21 326.83 127.84 L 327.38 128.21 C 329.40 129.72 331.34 131.34 333.27 132.97 C 337.17 136.51 340.91 140.26 344.17 144.42 C 345.14 145.77 346.24 147.04 347.34 148.30 L 347.92 149.09 C 348.64 150.22 349.50 151.27 350.41 152.27 L 350.80 153.05 C 351.02 154.05 351.58 154.82 352.46 155.37 L 352.82 156.10 C 353.08 157.09 353.66 157.83 354.56 158.33 L 354.95 158.92 C 355.21 159.88 355.75 160.64 356.58 161.20 C 359.05 165.38 361.27 169.75 362.89 174.34 C 363.24 175.59 363.79 176.78 364.43 177.93 C 366.75 183.51 369.40 189.23 369.86 195.35 C 369.75 196.37 370.01 197.29 370.65 198.11 L 370.87 199.11 C 370.73 200.13 370.96 201.07 371.56 201.92 C 371.65 202.52 371.83 203.71 371.92 204.30 C 371.87 205.50 372.06 206.70 372.43 207.85 C 372.53 208.49 372.73 209.77 372.83 210.41 C 372.88 211.81 373.09 213.19 373.44 214.55 C 373.82 216.42 374.06 218.31 374.23 220.21 C 374.38 223.22 374.55 226.28 374.77 229.31 C 374.90 231.22 375.01 233.14 375.13 235.05 C 373.59 236.57 372.05 238.10 370.44 239.54 C 368.00 242.11 363.46 239.31 362.73 236.35 C 362.05 231.71 362.09 227.00 361.94 222.32 C 361.87 220.39 361.74 218.47 361.57 216.57 C 361.49 215.59 361.33 213.64 361.25 212.66 C 361.30 211.47 361.02 210.30 360.50 209.24 C 359.41 206.58 358.79 203.70 359.06 200.82 C 359.26 199.81 359.05 198.89 358.41 198.07 C 355.17 191.41 353.70 184.04 350.83 177.22 C 349.80 174.63 348.54 172.13 347.21 169.68 C 346.75 168.83 346.35 167.94 346.00 167.04 C 345.75 166.06 345.18 165.32 344.30 164.83 C 343.15 163.80 342.40 162.41 341.92 160.97 C 341.76 159.98 341.30 159.16 340.53 158.51 L 340.04 157.84 C 339.35 156.72 338.52 155.70 337.55 154.82 C 336.66 153.95 335.82 153.03 334.99 152.11 C 331.76 148.56 328.41 145.10 324.73 142.01 C 323.46 140.90 322.24 139.74 321.10 138.51 C 320.25 137.49 319.24 136.61 318.13 135.89 L 317.42 135.36 C 316.42 134.47 315.38 133.64 314.28 132.91 L 313.62 132.39 C 312.98 131.57 312.14 131.13 311.12 131.06 C 310.00 130.89 309.00 130.47 308.13 129.78 C 307.66 128.87 306.95 128.27 306.00 127.97 C 304.96 127.46 303.96 126.90 303.00 126.27 C 301.60 125.30 300.08 124.50 298.45 124.04 C 288.22 119.99 277.55 117.31 266.98 114.37 C 266.11 113.81 265.18 113.64 264.18 113.86 C 263.48 113.87 262.07 113.90 261.37 113.91 C 258.49 113.80 255.66 113.68 252.80 113.54 C 249.45 112.70 244.75 114.20 242.13 111.27 C 241.51 110.28 240.70 109.95 239.68 110.26 L 239.94 108.50 C 240.22 106.71 240.34 104.90 240.31 103.10 Z" />
<path fill="#fefefe" opacity="1.00" d=" M 145.20 121.59 C 151.34 116.80 160.26 112.76 167.92 116.40 C 168.48 117.24 169.25 117.78 170.23 118.04 L 170.96 118.47 C 172.06 119.67 173.15 120.87 174.29 122.03 L 174.83 122.62 C 176.49 124.52 178.20 126.38 179.90 128.24 C 180.72 129.16 181.48 130.13 182.15 131.17 C 182.81 132.29 183.56 133.36 184.37 134.39 L 184.87 135.14 C 185.50 136.32 186.32 137.38 187.29 138.32 C 187.70 138.82 188.54 139.82 188.96 140.32 C 189.70 141.39 190.58 142.36 191.52 143.28 L 191.95 143.92 C 192.23 144.89 192.80 145.64 193.65 146.19 L 193.93 146.97 C 194.09 147.99 194.62 148.76 195.51 149.29 C 196.67 150.27 197.49 151.58 198.08 152.97 C 198.33 153.95 198.90 154.69 199.77 155.20 L 200.07 155.86 C 200.29 156.84 200.82 157.61 201.65 158.18 C 202.26 159.01 202.73 159.92 203.06 160.91 C 203.24 161.89 203.73 162.68 204.54 163.28 C 206.30 165.65 207.48 168.44 208.17 171.30 C 208.31 174.25 208.49 177.24 208.50 180.21 C 208.15 182.27 207.25 184.35 205.61 185.71 C 204.66 186.08 203.98 186.73 203.57 187.65 C 203.29 187.96 202.72 188.59 202.44 188.90 C 201.21 190.00 200.04 191.16 198.90 192.35 C 198.47 192.71 197.62 193.42 197.19 193.77 C 193.15 196.44 188.90 199.33 186.91 203.93 C 186.27 205.42 185.78 206.98 185.30 208.53 C 184.61 210.25 184.59 211.93 185.24 213.55 C 186.93 218.56 189.08 223.39 190.73 228.41 C 190.94 229.56 191.50 230.59 192.21 231.52 L 192.60 232.28 C 192.94 233.39 193.49 234.42 194.29 235.28 C 195.46 236.80 196.38 238.50 197.18 240.24 C 197.75 241.64 198.44 242.98 199.20 244.29 L 199.59 245.08 C 199.88 246.06 200.49 246.79 201.40 247.27 C 201.78 247.67 202.55 248.48 202.93 248.88 C 204.27 250.64 205.54 252.45 206.90 254.20 C 207.68 255.23 208.47 256.25 209.23 257.30 C 210.15 258.62 211.22 259.84 212.31 261.03 C 213.27 262.14 214.14 263.33 214.97 264.55 C 215.83 265.98 217.03 267.16 218.47 268.00 C 219.64 268.78 220.80 269.58 221.87 270.51 C 222.80 271.38 223.80 272.18 224.87 272.88 C 225.94 273.64 226.92 274.52 227.83 275.47 C 228.67 276.45 229.64 277.34 230.83 277.89 C 232.15 278.67 233.52 279.43 234.58 280.58 C 235.09 281.47 235.85 282.01 236.85 282.19 C 238.50 282.71 240.08 283.44 241.61 284.25 C 244.07 285.60 246.57 286.89 249.15 288.04 C 253.65 290.24 258.58 291.45 263.05 293.72 C 263.87 294.39 264.78 294.61 265.80 294.39 C 269.77 293.72 274.23 294.39 277.65 291.95 C 280.10 290.24 282.25 288.16 284.18 285.90 C 284.54 285.49 285.27 284.68 285.63 284.28 C 286.56 283.37 287.29 282.29 287.85 281.12 L 288.25 280.43 C 290.06 278.20 291.93 276.02 293.91 273.95 C 295.87 272.86 298.02 272.11 300.24 271.80 C 303.37 271.76 306.57 271.76 309.71 271.93 C 312.54 272.54 315.35 273.68 317.53 275.63 C 318.11 276.47 318.90 276.96 319.92 277.09 C 320.95 277.35 321.92 277.74 322.85 278.28 C 323.34 279.15 324.07 279.74 325.03 280.05 L 325.57 280.48 C 326.10 281.36 326.88 281.88 327.89 282.05 C 328.93 282.35 329.90 282.79 330.82 283.37 C 331.39 284.19 332.17 284.71 333.16 284.91 L 333.83 285.19 C 334.31 286.07 335.03 286.66 335.99 286.98 C 336.43 287.35 337.31 288.09 337.75 288.47 C 338.25 289.37 339.01 289.93 340.02 290.16 L 340.78 290.50 C 341.75 291.35 342.76 292.17 343.84 292.90 C 344.35 293.34 345.38 294.22 345.89 294.65 C 347.08 295.88 348.34 297.04 349.73 298.06 L 350.48 298.66 C 351.45 299.54 352.51 300.34 353.66 301.02 C 354.18 301.40 355.23 302.17 355.75 302.56 C 356.67 303.46 357.67 304.28 358.78 304.96 C 362.81 307.69 365.84 312.43 365.99 317.35 C 366.00 317.93 366.03 319.08 366.04 319.65 C 366.06 322.46 365.78 325.83 363.47 327.77 C 362.55 328.24 361.95 328.97 361.66 329.96 L 361.26 330.74 C 360.46 332.01 359.70 333.30 358.99 334.63 C 358.59 335.13 357.78 336.14 357.38 336.65 C 356.42 337.54 355.59 338.57 355.04 339.77 C 354.76 340.23 354.18 341.16 353.89 341.62 C 350.18 345.40 346.35 349.07 342.61 352.83 L 341.94 353.04 C 340.91 353.19 340.14 353.71 339.64 354.62 C 329.88 364.16 313.67 362.41 302.82 355.65 C 301.74 354.89 300.54 354.30 299.25 354.04 C 288.05 350.06 277.03 344.93 267.17 338.27 C 266.05 337.29 264.78 336.49 263.35 336.06 C 260.28 334.69 256.80 333.89 254.17 331.72 C 253.60 330.88 252.82 330.36 251.83 330.18 C 250.77 329.89 249.90 329.32 249.24 328.46 C 248.76 327.54 248.03 326.93 247.05 326.64 L 246.25 326.24 C 244.93 325.45 243.58 324.71 242.21 324.03 L 241.48 323.56 C 240.96 322.67 240.20 322.09 239.21 321.84 L 238.50 321.47 C 237.90 320.62 237.09 320.15 236.07 320.05 C 234.50 319.80 233.18 318.81 232.25 317.56 C 231.75 316.65 230.99 316.10 229.98 315.92 L 229.19 315.62 C 228.64 314.77 227.87 314.21 226.91 313.93 L 226.22 313.48 C 225.25 312.55 224.23 311.68 223.11 310.94 L 222.38 310.38 C 221.38 309.48 220.32 308.64 219.18 307.92 L 218.46 307.39 C 217.46 306.53 216.42 305.72 215.28 305.07 C 214.81 304.75 213.88 304.10 213.42 303.77 C 211.57 302.28 209.78 300.71 207.93 299.22 L 207.41 298.78 C 205.56 297.17 203.72 295.55 201.82 294.01 C 200.24 292.69 198.67 291.36 197.19 289.95 C 194.08 286.89 191.00 283.84 187.93 280.75 C 186.54 279.31 185.24 277.78 183.97 276.24 C 182.06 273.87 180.07 271.57 178.22 269.16 L 177.81 268.59 C 176.91 267.23 175.84 265.98 174.72 264.80 C 174.29 264.27 173.45 263.20 173.03 262.67 C 172.32 261.55 171.48 260.54 170.59 259.57 L 170.06 258.87 C 169.33 257.75 168.49 256.71 167.59 255.73 L 167.21 255.01 C 166.97 254.01 166.42 253.24 165.56 252.70 C 165.15 252.17 164.34 251.10 163.93 250.56 C 163.43 249.47 162.64 249.08 161.56 249.39 L 161.82 248.15 C 162.09 247.11 161.77 246.24 160.88 245.55 L 160.30 244.79 C 159.95 243.82 159.32 243.12 158.39 242.68 L 158.03 242.03 C 157.75 241.05 157.17 240.31 156.32 239.79 L 156.06 239.03 C 155.89 238.01 155.37 237.23 154.49 236.70 C 153.62 235.95 153.10 235.02 152.94 233.88 C 152.82 232.85 152.35 232.04 151.51 231.44 L 151.00 230.78 C 150.21 229.52 149.37 228.29 148.48 227.10 C 147.81 226.18 147.29 225.18 146.90 224.12 C 146.69 223.13 146.15 222.37 145.30 221.82 C 143.52 219.96 142.53 217.47 142.00 214.98 C 141.91 213.95 141.42 213.16 140.53 212.62 C 134.62 204.52 130.83 194.93 127.06 185.68 C 126.71 184.41 126.12 183.23 125.38 182.15 C 121.00 173.95 116.71 164.36 118.40 154.97 C 119.03 154.17 119.31 153.27 119.23 152.25 C 119.61 149.42 120.69 146.59 122.58 144.41 C 123.44 143.87 123.97 143.10 124.18 142.10 L 124.47 141.44 C 125.35 140.91 125.89 140.15 126.09 139.15 C 126.33 138.70 126.80 137.80 127.04 137.35 C 129.79 134.56 132.53 131.76 135.21 128.90 C 136.37 127.77 137.63 126.71 139.10 126.02 C 140.07 125.78 140.86 125.27 141.46 124.47 L 142.11 123.99 C 143.22 123.30 144.25 122.48 145.20 121.59 Z" />
<path fill="#fefefe" opacity="1.00" d=" M 253.70 133.18 C 256.87 133.25 260.11 133.00 263.26 133.57 C 264.39 133.91 265.56 134.11 266.75 134.06 C 267.30 134.15 268.40 134.32 268.95 134.41 C 269.77 135.00 270.69 135.24 271.71 135.13 C 282.74 136.61 293.16 140.95 302.79 146.38 C 303.34 147.21 304.09 147.76 305.06 148.02 L 305.65 148.34 C 306.06 149.27 306.74 149.91 307.71 150.25 C 308.15 150.54 309.01 151.12 309.44 151.41 C 312.88 154.46 316.54 157.25 319.84 160.45 L 320.27 160.92 C 321.81 162.69 323.35 164.46 324.86 166.27 C 325.15 166.71 325.72 167.60 326.01 168.04 C 326.33 169.00 326.94 169.71 327.84 170.17 L 328.09 170.84 C 328.26 171.83 328.75 172.62 329.55 173.23 C 330.67 174.66 331.46 176.32 332.07 178.02 C 332.35 179.11 332.86 180.13 333.54 181.05 C 336.58 187.02 339.15 193.51 339.81 200.22 C 339.67 201.22 339.89 202.15 340.47 202.99 C 340.59 203.90 340.83 205.72 340.95 206.63 C 341.04 208.52 341.18 210.43 341.37 212.34 C 341.61 215.31 342.10 221.25 342.34 224.23 C 340.71 225.13 339.10 226.10 337.36 226.77 C 336.39 226.83 335.43 226.91 334.47 227.03 C 332.05 227.42 329.93 225.11 329.82 222.81 C 329.54 219.76 329.40 216.74 329.18 213.70 C 329.07 211.94 329.02 210.18 329.03 208.42 C 329.10 206.99 328.87 205.57 328.55 204.18 L 328.37 203.02 C 328.44 201.98 328.16 201.05 327.52 200.24 C 325.08 195.35 323.43 190.06 322.12 184.76 C 322.02 183.58 321.44 182.54 320.59 181.75 C 319.83 180.95 319.26 180.04 318.88 179.02 C 318.72 178.02 318.27 177.20 317.51 176.54 L 317.06 175.84 C 316.43 174.69 315.67 173.63 314.74 172.71 L 314.26 172.18 C 310.72 168.15 306.93 164.34 302.91 160.80 L 302.42 160.33 C 301.79 159.55 300.98 159.09 299.98 158.98 C 298.56 158.55 297.27 157.70 296.35 156.54 C 295.84 155.63 295.07 155.11 294.05 154.97 C 292.18 154.49 290.45 153.61 288.82 152.60 C 287.73 151.85 286.54 151.23 285.22 151.09 C 279.72 149.89 274.18 148.56 268.94 146.48 C 268.10 145.87 267.18 145.65 266.17 145.81 C 265.20 145.75 263.26 145.62 262.29 145.55 C 261.08 145.38 258.67 145.04 257.46 144.87 C 256.84 144.71 255.61 144.40 254.99 144.24 C 253.68 143.49 252.39 142.71 250.97 142.20 L 251.20 140.59 C 251.40 139.55 251.42 138.52 251.27 137.48 L 251.13 136.03 C 252.40 135.55 253.36 134.50 253.70 133.18 Z" />
<path fill="#fefefe" opacity="1.00" d=" M 265.30 165.72 C 266.66 166.00 268.02 166.29 269.37 166.62 C 270.69 166.99 272.06 167.19 273.45 167.23 C 279.11 167.88 284.85 169.40 289.72 172.43 C 290.30 173.24 291.07 173.76 292.05 173.99 C 292.48 174.28 293.36 174.85 293.79 175.14 C 296.15 177.48 298.51 179.83 300.76 182.29 C 304.05 187.06 306.70 192.52 307.70 198.28 C 307.64 199.29 307.94 200.19 308.59 200.97 C 308.93 202.39 309.08 203.84 309.02 205.31 C 308.88 206.49 309.07 207.67 309.47 208.78 C 309.67 210.45 310.96 212.97 308.82 213.84 C 307.91 214.25 307.25 214.91 306.84 215.82 C 305.64 218.21 301.31 218.24 300.16 215.81 C 299.72 214.91 299.03 214.28 298.11 213.92 C 296.82 211.77 296.46 209.34 297.05 206.65 C 297.16 205.47 296.99 204.29 296.50 203.22 C 295.73 201.05 295.26 198.79 294.78 196.55 C 294.54 194.82 293.61 193.32 292.72 191.85 L 292.28 191.02 C 291.95 190.05 291.35 189.31 290.47 188.80 L 290.09 188.01 C 289.81 186.99 289.18 186.30 288.20 185.94 C 287.71 185.60 286.73 184.92 286.23 184.57 C 285.66 183.71 284.88 183.22 283.88 183.08 C 280.77 182.29 277.76 181.06 274.95 179.52 C 274.12 178.90 273.20 178.67 272.18 178.86 C 271.31 178.72 269.56 178.46 268.68 178.32 C 267.56 177.91 266.36 177.57 265.17 177.85 L 263.79 178.00 C 262.78 176.66 261.60 175.46 260.27 174.45 C 260.22 173.10 260.18 171.75 260.13 170.40 C 261.88 168.87 263.60 167.31 265.30 165.72 Z" />
</g>
</svg>
